<svg width="32" height="39" viewBox="0 0 32 39" fill="none" xmlns="http://www.w3.org/2000/svg">
<path fill-rule="evenodd" clip-rule="evenodd" d="M27.1313 31.6475C25.9705 33.7694 23.5375 37.3266 20.2738 37.34C19.9505 37.2986 18.6233 36.8262 18.2298 36.5653C17.5025 36.0836 16.6334 35.8635 15.774 35.9413C14.9148 35.864 14.0465 36.0836 13.3186 36.5653C12.9247 36.8262 11.5982 37.2986 11.2754 37.34C8.01115 37.3266 5.57862 33.7694 4.41785 31.6475C2.64738 28.411 1.50346 24.2989 1.50346 21.1707C1.50346 16.8284 3.69738 12.835 6.71977 11.6749C6.72 11.6749 6.72 11.6749 6.72 11.6749C7.32762 11.4414 7.96385 11.322 8.61092 11.3192H8.62246C10.4575 11.3192 11.7939 13.1243 12.9577 13.7087C14.7295 14.5973 16.8028 14.6077 18.5908 13.7085C19.7532 13.1255 21.0983 11.3192 22.9405 11.3192C24.8594 11.3192 26.6525 12.3699 27.9895 14.2773C29.2962 16.141 30.0455 18.6538 30.0455 21.1707C30.0455 24.2987 28.9015 28.411 27.1313 31.6475ZM4.51754 4.8576L7.73862 8.08069C8.03238 8.37441 8.50823 8.37441 8.80177 8.08069C9.09554 7.78673 9.09554 7.31036 8.80177 7.01664L5.58115 3.79378C9.99438 3.96188 13.533 7.60616 13.533 12.0626V12.3087C12.1329 11.4717 10.4414 8.96601 6.66254 10.107C5.343 8.65913 4.59115 6.82059 4.51754 4.8576ZM18.2645 2.05176C18.5582 1.75781 19.0334 1.75758 19.3274 2.05176C19.6207 2.34526 19.6218 2.82048 19.3272 3.11535C17.5302 4.9144 16.5404 7.30574 16.5404 9.84856V12.811C16.0426 12.8929 15.5354 12.8945 15.0367 12.8158C15.0367 11.9203 15.0367 10.745 15.0367 9.84856C15.0367 6.90326 16.1832 4.13437 18.2645 2.05176ZM22.9408 9.81462C20.6121 9.81462 19.0131 11.6929 18.0441 12.2909V9.84856C18.0441 7.70753 18.8776 5.69396 20.3908 4.17917C21.2721 3.29731 21.2723 1.86981 20.3908 0.987946C19.5095 0.105856 18.0828 0.105626 17.2013 0.987715C15.4498 2.74012 14.2816 4.92064 13.7928 7.29304C12.1182 4.30594 8.92246 2.28268 5.26292 2.28268H3.75923C3.75462 2.28268 3.75046 2.28314 3.74585 2.28314C3.32885 2.29053 3.00692 2.63413 3.00738 3.03523V4.5394C3.00738 6.82544 3.78369 8.98656 5.21169 10.7276C3.79546 11.5261 2.577 12.8174 1.65 14.5151C0.585923 16.4633 0 18.8269 0 21.1707C0 24.5326 1.21638 28.9285 3.099 32.3698C5.38292 36.5452 8.29338 38.8446 11.2941 38.8446C11.8461 38.8446 13.5891 38.1909 14.1487 37.82C14.9522 37.2882 15.6602 37.4677 15.8592 37.445C16.3957 37.3838 16.9428 37.5171 17.3998 37.8198C17.9596 38.1909 19.7031 38.8446 20.2553 38.8446C23.256 38.8446 26.1662 36.5452 28.4504 32.3698C30.333 28.9285 31.5494 24.5326 31.5494 21.1707C31.5494 18.3517 30.7006 15.5242 29.2209 13.4132C27.594 11.0925 25.3638 9.81462 22.9408 9.81462Z" fill="#E8E8E8"/>
</svg>
