<svg width="17" height="19" viewBox="0 0 17 19" fill="none" xmlns="http://www.w3.org/2000/svg">
<path fill-rule="evenodd" clip-rule="evenodd" d="M15.8543 3.94772C15.8405 4.18297 15.72 4.33571 15.5255 4.40789C15.4402 4.45186 15.3431 4.4771 15.24 4.4771H1.73662C1.39662 4.4771 1.12096 4.20669 1.12096 3.87317C1.12096 3.53955 1.39662 3.26914 1.73662 3.26914H15.24C15.58 3.26914 15.8556 3.53955 15.8556 3.87317C15.8556 3.88604 15.8545 3.89866 15.8537 3.91146C15.8535 3.92374 15.855 3.93501 15.8543 3.94772ZM14.2589 10.5788C14.0726 12.7711 13.8865 14.9635 13.7004 17.1558C13.6525 17.7189 13.4797 17.8887 12.9266 17.8891C9.97857 17.8913 7.0305 17.8911 4.08251 17.8892C3.55407 17.8889 3.34879 17.721 3.30837 17.2472C2.98427 13.4528 2.66352 9.65824 2.34261 5.86356C2.33682 5.7946 2.34183 5.72471 2.34183 5.62195H14.6811C14.5386 7.29501 14.3986 8.93688 14.2589 10.5788ZM6.52348 1.12626C7.81473 1.12736 9.10599 1.12761 10.3973 1.12693C11.2334 1.12642 11.4282 1.35685 11.2805 2.20706H5.74952C5.51453 1.47528 5.76644 1.12558 6.52348 1.12626ZM16.9442 3.49601C16.7497 2.76873 16.1042 2.26187 15.2948 2.239C14.5904 2.21917 13.885 2.23315 13.18 2.23239C12.9558 2.23214 12.7317 2.2323 12.4987 2.2323C12.486 2.08414 12.4757 2.00162 12.4723 1.91886C12.4182 0.612877 11.7955 0.0199514 10.4732 0.0187654C9.27914 0.0176641 8.08254 0.0667145 6.89163 0.00639687C5.38301 -0.0699321 4.45334 0.528839 4.51319 2.23247C4.32699 2.23247 4.17275 2.23239 4.0186 2.23247C3.25613 2.23298 2.49331 2.21943 1.73127 2.2379C0.895731 2.25814 0.23663 2.77322 0.0506964 3.51389C-0.134114 4.24956 0.194832 4.94736 0.899185 5.38949C1.02959 5.47133 1.15809 5.64974 1.17511 5.79621C1.2733 6.63676 1.34126 7.48079 1.4126 8.32413C1.6684 11.347 1.91556 14.3706 2.17913 17.3928C2.26316 18.3559 2.94601 18.9888 3.91212 18.9921C6.97644 19.0026 10.0408 19.0029 13.1052 18.9913C14.0305 18.9878 14.7267 18.3603 14.8133 17.4603C14.9699 15.8311 15.1003 14.1995 15.24 12.5687C15.4327 10.3193 15.6187 8.06931 15.8271 5.82137C15.8416 5.66465 15.982 5.47057 16.1219 5.38178C16.8116 4.94397 17.1396 4.2266 16.9442 3.49601Z" fill="#FF9797"/>
<path fill-rule="evenodd" clip-rule="evenodd" d="M8.00679 16.4348C8.03326 16.7722 8.18574 17.0046 8.50219 16.9999C8.81766 16.9954 8.96651 16.7569 8.98996 16.4223C9.00168 16.2551 8.99941 16.0865 8.99949 15.9186C9.00024 14.6026 8.99994 13.2866 8.99994 11.9706H8.99533C8.99533 10.5566 8.9979 9.14251 8.99397 7.72857C8.99253 7.24074 8.81675 6.99774 8.49055 7.00002C8.16736 7.00229 8.00898 7.24158 8.00044 7.74103C7.99968 7.78303 8.00014 7.82503 8.00014 7.86703C8.00014 10.6111 8.00006 13.3551 8.00036 16.0991C8.00036 16.211 7.99817 16.3236 8.00679 16.4348Z" fill="#FF9797"/>
<path fill-rule="evenodd" clip-rule="evenodd" d="M11.6498 16.9999C12.0718 16.9931 12.2975 16.7914 12.3359 16.4482C12.3548 16.2811 12.3692 16.1136 12.3821 15.9463C12.55 13.7838 12.7188 11.6214 12.8837 9.45894C12.9305 8.84497 12.9843 8.23067 12.9998 7.61594C13.0119 7.13208 12.4386 6.82988 12.0076 7.10369C11.8163 7.22522 11.6858 7.49533 11.6683 7.7059C11.4688 10.1188 11.2962 12.5333 11.1165 14.9474L11.1087 14.9471C11.071 15.4214 11.019 15.8953 11.0005 16.3701C10.9865 16.7248 11.2803 17.0059 11.6498 16.9999Z" fill="#FF9797"/>
<path fill-rule="evenodd" clip-rule="evenodd" d="M4.09979 9.1382C4.2408 10.9831 4.38141 12.828 4.52303 14.6729C4.56919 15.2739 4.61087 15.8753 4.66872 16.4757C4.70004 16.8014 4.93632 17.0047 5.32713 16.9999C5.74133 16.9949 5.96693 16.7733 5.99713 16.4327C6.00821 16.308 5.98432 16.1812 5.97466 16.0554C5.88499 14.8814 5.79399 13.7075 5.70503 12.5335C5.5811 10.8979 5.46327 9.26209 5.33252 7.62691C5.29765 7.19221 5.00779 6.96801 4.58088 7.00369C4.17787 7.03736 3.97707 7.27393 4.00208 7.71166C4.02933 8.18734 4.07122 8.66252 4.1066 9.13786L4.09979 9.1382Z" fill="#FF9797"/>
</svg>
