<svg width="36" height="40" viewBox="0 0 36 40" fill="none" xmlns="http://www.w3.org/2000/svg">
<path fill-rule="evenodd" clip-rule="evenodd" d="M6.34038 15.598C5.59414 15.8724 5.41576 16.3202 5.41801 17.0482C5.43862 23.616 5.43331 30.1837 5.42397 36.7515C5.42316 37.304 5.6038 38.0918 4.72652 38.0963C3.83683 38.1006 4.03277 37.3089 4.03212 36.7588C4.0252 30.1911 4.02166 23.6233 4.04565 17.0557C4.04839 16.3244 3.86694 15.8759 3.12328 15.602C2.21299 15.2669 1.69763 14.5351 1.48463 13.4629H7.97485C7.76217 14.4937 7.27418 15.2544 6.34038 15.598ZM9.45057 13.0271C9.48905 10.2881 9.46699 7.54825 9.4707 4.80892C9.47134 4.31402 9.34882 3.84116 8.77051 3.82966C8.12168 3.81673 8.04714 4.32488 8.04858 4.84596C8.05438 6.94719 8.05084 9.04827 8.05068 11.1493V12.0046H6.77234V11.0983C6.77202 8.97068 6.77057 6.84295 6.77218 4.71521C6.7725 4.23213 6.60297 3.83397 6.07135 3.82775C5.54343 3.82184 5.35216 4.21233 5.34427 4.69573C5.34105 4.88188 5.34186 5.06818 5.3417 5.25433C5.3417 7.22242 5.34331 9.19051 5.33993 11.1586C5.33944 11.4399 5.31561 11.7212 5.3 12.0582C4.85451 12.0382 4.49693 12.0223 4.08316 12.0038V11.0467C4.08252 8.99878 4.07898 6.95087 4.083 4.90311C4.08381 4.40055 4.0727 3.85042 3.42113 3.83222C2.70581 3.8121 2.69583 4.39528 2.69615 4.92179C2.69695 6.99636 2.69824 9.07078 2.69438 11.1454C2.69406 11.4265 2.66459 11.7076 2.64753 12.0103H1.43761C1.43761 11.5997 1.43778 11.282 1.43761 10.9645C1.43729 8.88974 1.43761 6.81533 1.436 4.74075C1.43568 4.22909 1.25488 3.80412 0.673509 3.83094C0.141888 3.85537 0.00487745 4.27443 0.00584345 4.75001C0.0109954 7.54251 -0.0207215 10.3356 0.0256464 13.1275C0.0507624 14.6358 0.757068 15.8454 2.06551 16.6323C2.50263 16.8953 2.61871 17.1753 2.61742 17.6493C2.60213 24.0588 2.60454 30.4685 2.60824 36.8784C2.6084 37.2219 2.62064 37.5733 2.69229 37.9076C2.90513 38.8993 3.78741 39.5796 4.77788 39.5526C5.81729 39.5243 6.65626 38.7791 6.79713 37.7322C6.84286 37.3915 6.84109 37.0427 6.84109 36.6977C6.84366 30.3678 6.84721 24.0377 6.83465 17.708C6.83368 17.2137 6.94139 16.9004 7.41038 16.6167C8.74378 15.8097 9.429 14.5654 9.45057 13.0271Z" fill="#E8E8E8"/>
<path fill-rule="evenodd" clip-rule="evenodd" d="M34.6397 6.88632C34.638 16.8477 34.6363 26.8093 34.6347 36.7706C34.6347 36.9039 34.6316 37.0371 34.635 37.1702C34.6466 37.6321 34.5724 38.0737 34.0354 38.1019C33.4536 38.1321 33.33 37.6772 33.3288 37.183C33.3232 34.8923 33.3248 32.6018 33.324 30.3112C33.3237 29.3522 33.294 28.392 33.3343 27.435C33.3615 26.7912 33.164 26.3066 32.7012 25.8955C32.3725 25.6033 32.0066 25.3088 31.7954 24.9308C31.487 24.3784 31.1085 23.7544 31.0972 23.1539C31.0366 19.9328 31.0147 16.7073 31.1079 13.4873C31.1935 10.5295 32.4207 8.07086 34.6397 5.87245V6.88632ZM35.9987 21.1583C35.9989 15.7513 36.0067 10.3445 35.982 4.93761C35.9805 4.56185 35.8323 3.99541 35.5853 3.86568C35.3405 3.73739 34.8173 3.9575 34.5314 4.18385C31.5069 6.57806 29.8567 9.76794 29.7411 13.7392C29.6594 16.5334 29.7981 19.3352 29.6911 22.1274C29.6201 23.9804 30.0912 25.4828 31.4898 26.6298C31.9156 26.979 32.0108 27.4096 32.0071 27.9524C31.987 31.0419 32.0013 34.1317 31.9956 37.2213C31.9941 38.0115 32.1824 38.7029 32.8457 39.1612C33.5158 39.6243 34.2206 39.6937 34.9386 39.2816C35.715 38.836 36.0002 38.1099 35.9998 37.219C35.9975 31.8655 35.9987 26.5119 35.9987 21.1583Z" fill="#E8E8E8"/>
<path fill-rule="evenodd" clip-rule="evenodd" d="M18.0632 12.8856C22.6998 12.9171 26.4135 16.7081 26.4012 21.3967C26.3887 26.1136 22.6118 29.8893 17.9368 29.8575C13.3002 29.8263 9.58642 26.0355 9.59857 21.3471C9.61072 16.6314 13.39 12.8538 18.0632 12.8856ZM17.9558 31.2599C23.3699 31.2817 27.7578 26.8984 27.7893 21.4362C27.8209 15.9665 23.49 11.5256 18.0833 11.4835C12.6675 11.4416 8.26183 15.8079 8.21102 21.2672C8.15988 26.771 12.5157 31.2376 17.9558 31.2599Z" fill="#E8E8E8"/>
<path fill-rule="evenodd" clip-rule="evenodd" d="M28.1415 28.8867C27.7123 28.5279 27.3405 28.7618 27.0291 29.1309C26.889 29.2972 26.7486 29.4634 26.6024 29.624C23.0185 33.5628 17.6116 34.7219 12.7753 32.5751C12.2098 32.3241 11.6972 31.9344 11.1174 31.7397C10.846 31.6486 10.3764 31.6337 10.1831 31.9823C9.98904 32.332 10.1975 32.7366 10.374 32.8893C10.5136 33.0098 10.7171 33.1359 10.9028 33.2461C12.975 34.4762 15.2265 35.0338 17.7918 35.0877C18.1497 35.0617 18.6893 35.0453 19.2234 34.9801C22.8108 34.5427 25.7603 32.9028 28.0881 30.0993C28.415 29.7055 28.6122 29.2803 28.1415 28.8867Z" fill="#E8E8E8"/>
<path fill-rule="evenodd" clip-rule="evenodd" d="M12.7066 10.8565C13.8938 10.2911 15.1005 9.92132 16.3266 9.74888C17.0534 9.65968 17.7914 9.63692 18.5384 9.66961C18.993 9.68961 19.4365 9.73406 19.8712 9.79775C20.3052 9.86847 20.7411 9.95981 21.1793 10.0777C21.8994 10.2717 22.593 10.5159 23.2541 10.8196C24.3623 11.3528 25.3879 12.0678 26.3311 12.9623C26.6833 13.2965 27.0882 13.6231 27.5591 13.1873C27.9512 12.8244 27.786 12.4681 27.4848 12.156C27.4102 12.0535 27.3079 11.9595 27.1877 11.8777C27.183 11.8744 27.178 11.8712 27.173 11.8678C26.0078 10.8148 24.7462 9.99295 23.3944 9.40522C23.2674 9.3403 23.1309 9.28608 22.9854 9.23338C22.0616 8.86865 21.096 8.61311 20.0929 8.46144C19.0922 8.30367 18.0933 8.25555 17.0983 8.32337C16.943 8.32963 16.7957 8.34002 16.6537 8.36354C15.1786 8.51414 13.7131 8.91447 12.2634 9.5633C12.2578 9.56513 12.2519 9.56666 12.2464 9.56834C12.1057 9.60973 11.9779 9.66838 11.8736 9.74307C11.486 9.94881 11.213 10.2372 11.4671 10.7001C11.7724 11.2558 12.2634 11.0678 12.7066 10.8565Z" fill="#E8E8E8"/>
<path fill-rule="evenodd" clip-rule="evenodd" d="M12.0314 22.3253C12.643 22.3672 12.8157 22.0011 12.8534 21.5176C13.0041 19.5823 14.0124 18.1854 15.8564 17.3078C16.2985 17.0975 16.5812 16.7825 16.322 16.3154C16.0619 15.847 15.615 15.8899 15.1822 16.0994C12.8696 17.2178 11.6169 18.998 11.3684 21.6915C11.3684 21.8153 11.3684 22.2795 12.0314 22.3253Z" fill="#E8E8E8"/>
<path fill-rule="evenodd" clip-rule="evenodd" d="M8.84208 29.9841C8.4933 29.9841 8.21057 30.2696 8.21057 30.6219C8.21057 30.9744 8.4933 31.26 8.84208 31.26C9.19086 31.26 9.47373 30.9744 9.47373 30.6219C9.47373 30.2696 9.19086 29.9841 8.84208 29.9841Z" fill="#E8E8E8"/>
<path fill-rule="evenodd" clip-rule="evenodd" d="M17.6842 16.5869C18.0329 16.5869 18.3158 16.3013 18.3158 15.949C18.3158 15.5967 18.0329 15.311 17.6842 15.311C17.3354 15.311 17.0526 15.5967 17.0526 15.949C17.0526 16.3013 17.3354 16.5869 17.6842 16.5869Z" fill="#E8E8E8"/>
<path fill-rule="evenodd" clip-rule="evenodd" d="M14.1166 5.4518C14.2092 5.63442 14.4063 5.74163 14.6119 5.74163C14.6893 5.74163 14.7676 5.72634 14.8423 5.69454C15.1157 5.57733 15.2341 5.27872 15.1067 5.0275L13.6732 2.2037C13.5455 1.95263 13.2204 1.84391 12.9471 1.96096C12.6737 2.07817 12.5554 2.37663 12.6829 2.628L14.1166 5.4518Z" fill="#E8E8E8"/>
<path fill-rule="evenodd" clip-rule="evenodd" d="M21.1578 5.69439C21.2323 5.72634 21.3109 5.74163 21.3882 5.74163C21.5939 5.74163 21.7909 5.63427 21.8835 5.45166L23.3172 2.62784C23.4446 2.37678 23.3263 2.07818 23.053 1.96098C22.7799 1.84394 22.4547 1.95251 22.3271 2.20371L20.8934 5.02754C20.766 5.27874 20.8843 5.57734 21.1578 5.69439Z" fill="#E8E8E8"/>
<path fill-rule="evenodd" clip-rule="evenodd" d="M17.6843 5.10367C18.0331 5.10367 18.3158 4.86786 18.3158 4.57706V0.526607C18.3158 0.235654 18.0331 0 17.6843 0C17.3355 0 17.0526 0.235654 17.0526 0.526607V4.57706C17.0526 4.86801 17.3353 5.10367 17.6843 5.10367Z" fill="#E8E8E8"/>
</svg>
