<svg width="375" height="63" viewBox="0 0 375 63" fill="none" xmlns="http://www.w3.org/2000/svg">
<path d="M0.5 0.5H374.5" stroke="#E8E8E8" stroke-linecap="square"/>
<path d="M0.5 62.5H374.5" stroke="#E8E8E8" stroke-linecap="square"/>
<path d="M71.5625 48L70.4961 45.2754H67.0625L66.0078 48H65L68.3867 39.3984H69.2246L72.5938 48H71.5625ZM70.1855 44.3789L69.1895 41.7246C69.0605 41.3887 68.9277 40.9766 68.791 40.4883C68.7051 40.8633 68.582 41.2754 68.4219 41.7246L67.4141 44.3789H70.1855ZM75.0312 48L72.5938 41.5781H73.6367L75.0195 45.3867C75.332 46.2773 75.5156 46.8555 75.5703 47.1211H75.6172C75.6602 46.9141 75.7949 46.4863 76.0215 45.8379C76.252 45.1855 76.7656 43.7656 77.5625 41.5781H78.6055L76.168 48H75.0312ZM86.6914 48L83.7852 40.4062H83.7383C83.793 41.0078 83.8203 41.7227 83.8203 42.5508V48H82.9004V39.4336H84.4004L87.1133 46.5H87.1602L89.8965 39.4336H91.3848V48H90.3887V42.4805C90.3887 41.8477 90.416 41.1602 90.4707 40.418H90.4238L87.4941 48H86.6914ZM97.543 48L97.3496 47.0859H97.3027C96.9824 47.4883 96.6621 47.7617 96.3418 47.9062C96.0254 48.0469 95.6289 48.1172 95.1523 48.1172C94.5156 48.1172 94.0156 47.9531 93.6523 47.625C93.293 47.2969 93.1133 46.8301 93.1133 46.2246C93.1133 44.9277 94.1504 44.248 96.2246 44.1855L97.3145 44.1504V43.752C97.3145 43.248 97.2051 42.877 96.9863 42.6387C96.7715 42.3965 96.4258 42.2754 95.9492 42.2754C95.4141 42.2754 94.8086 42.4395 94.1328 42.7676L93.834 42.0234C94.1504 41.8516 94.4961 41.7168 94.8711 41.6191C95.25 41.5215 95.6289 41.4727 96.0078 41.4727C96.7734 41.4727 97.3398 41.6426 97.707 41.9824C98.0781 42.3223 98.2637 42.8672 98.2637 43.6172V48H97.543ZM95.3457 47.3145C95.9512 47.3145 96.4258 47.1484 96.7695 46.8164C97.1172 46.4844 97.291 46.0195 97.291 45.4219V44.8418L96.3184 44.8828C95.5449 44.9102 94.9863 45.0312 94.6426 45.2461C94.3027 45.457 94.1328 45.7871 94.1328 46.2363C94.1328 46.5879 94.2383 46.8555 94.4492 47.0391C94.6641 47.2227 94.9629 47.3145 95.3457 47.3145ZM103.203 41.4609C103.488 41.4609 103.744 41.4844 103.971 41.5312L103.836 42.4336C103.57 42.375 103.336 42.3457 103.133 42.3457C102.613 42.3457 102.168 42.5566 101.797 42.9785C101.43 43.4004 101.246 43.9258 101.246 44.5547V48H100.273V41.5781H101.076L101.188 42.7676H101.234C101.473 42.3496 101.76 42.0273 102.096 41.8008C102.432 41.5742 102.801 41.4609 103.203 41.4609ZM106.145 48H105.172V41.5781H106.145V48ZM105.09 39.8379C105.09 39.6152 105.145 39.4531 105.254 39.3516C105.363 39.2461 105.5 39.1934 105.664 39.1934C105.82 39.1934 105.955 39.2461 106.068 39.3516C106.182 39.457 106.238 39.6191 106.238 39.8379C106.238 40.0566 106.182 40.2207 106.068 40.3301C105.955 40.4355 105.82 40.4883 105.664 40.4883C105.5 40.4883 105.363 40.4355 105.254 40.3301C105.145 40.2207 105.09 40.0566 105.09 39.8379ZM112.35 46.248C112.35 46.8457 112.127 47.3066 111.682 47.6309C111.236 47.9551 110.611 48.1172 109.807 48.1172C108.955 48.1172 108.291 47.9824 107.814 47.7129V46.8105C108.123 46.9668 108.453 47.0898 108.805 47.1797C109.16 47.2695 109.502 47.3145 109.83 47.3145C110.338 47.3145 110.729 47.2344 111.002 47.0742C111.275 46.9102 111.412 46.6621 111.412 46.3301C111.412 46.0801 111.303 45.8672 111.084 45.6914C110.869 45.5117 110.447 45.3008 109.818 45.0586C109.221 44.8359 108.795 44.6426 108.541 44.4785C108.291 44.3105 108.104 44.1211 107.979 43.9102C107.857 43.6992 107.797 43.4473 107.797 43.1543C107.797 42.6309 108.01 42.2188 108.436 41.918C108.861 41.6133 109.445 41.4609 110.188 41.4609C110.879 41.4609 111.555 41.6016 112.215 41.8828L111.869 42.6738C111.225 42.4082 110.641 42.2754 110.117 42.2754C109.656 42.2754 109.309 42.3477 109.074 42.4922C108.84 42.6367 108.723 42.8359 108.723 43.0898C108.723 43.2617 108.766 43.4082 108.852 43.5293C108.941 43.6504 109.084 43.7656 109.279 43.875C109.475 43.9844 109.85 44.1426 110.404 44.3496C111.166 44.627 111.68 44.9062 111.945 45.1875C112.215 45.4688 112.35 45.8223 112.35 46.248ZM116.504 48.1172C115.574 48.1172 114.854 47.832 114.342 47.2617C113.834 46.6875 113.58 45.877 113.58 44.8301C113.58 43.7559 113.838 42.9258 114.354 42.3398C114.873 41.7539 115.611 41.4609 116.568 41.4609C116.877 41.4609 117.186 41.4941 117.494 41.5605C117.803 41.627 118.045 41.7051 118.221 41.7949L117.922 42.6211C117.707 42.5352 117.473 42.4648 117.219 42.4102C116.965 42.3516 116.74 42.3223 116.545 42.3223C115.24 42.3223 114.588 43.1543 114.588 44.8184C114.588 45.6074 114.746 46.2129 115.062 46.6348C115.383 47.0566 115.855 47.2676 116.48 47.2676C117.016 47.2676 117.564 47.1523 118.127 46.9219V47.7832C117.697 48.0059 117.156 48.1172 116.504 48.1172ZM123.605 48L123.412 47.0859H123.365C123.045 47.4883 122.725 47.7617 122.404 47.9062C122.088 48.0469 121.691 48.1172 121.215 48.1172C120.578 48.1172 120.078 47.9531 119.715 47.625C119.355 47.2969 119.176 46.8301 119.176 46.2246C119.176 44.9277 120.213 44.248 122.287 44.1855L123.377 44.1504V43.752C123.377 43.248 123.268 42.877 123.049 42.6387C122.834 42.3965 122.488 42.2754 122.012 42.2754C121.477 42.2754 120.871 42.4395 120.195 42.7676L119.896 42.0234C120.213 41.8516 120.559 41.7168 120.934 41.6191C121.312 41.5215 121.691 41.4727 122.07 41.4727C122.836 41.4727 123.402 41.6426 123.77 41.9824C124.141 42.3223 124.326 42.8672 124.326 43.6172V48H123.605ZM121.408 47.3145C122.014 47.3145 122.488 47.1484 122.832 46.8164C123.18 46.4844 123.354 46.0195 123.354 45.4219V44.8418L122.381 44.8828C121.607 44.9102 121.049 45.0312 120.705 45.2461C120.365 45.457 120.195 45.7871 120.195 46.2363C120.195 46.5879 120.301 46.8555 120.512 47.0391C120.727 47.2227 121.025 47.3145 121.408 47.3145ZM127.309 48H126.336V38.8828H127.309V48ZM133.631 44.4375V48H132.635V39.4336H134.984C136.035 39.4336 136.811 39.6348 137.311 40.0371C137.814 40.4395 138.066 41.0449 138.066 41.8535C138.066 42.9863 137.492 43.752 136.344 44.1504L138.67 48H137.492L135.418 44.4375H133.631ZM133.631 43.582H134.996C135.699 43.582 136.215 43.4434 136.543 43.166C136.871 42.8848 137.035 42.4648 137.035 41.9062C137.035 41.3398 136.867 40.9316 136.531 40.6816C136.199 40.4316 135.664 40.3066 134.926 40.3066H133.631V43.582ZM143.855 48L143.662 47.0859H143.615C143.295 47.4883 142.975 47.7617 142.654 47.9062C142.338 48.0469 141.941 48.1172 141.465 48.1172C140.828 48.1172 140.328 47.9531 139.965 47.625C139.605 47.2969 139.426 46.8301 139.426 46.2246C139.426 44.9277 140.463 44.248 142.537 44.1855L143.627 44.1504V43.752C143.627 43.248 143.518 42.877 143.299 42.6387C143.084 42.3965 142.738 42.2754 142.262 42.2754C141.727 42.2754 141.121 42.4395 140.445 42.7676L140.146 42.0234C140.463 41.8516 140.809 41.7168 141.184 41.6191C141.562 41.5215 141.941 41.4727 142.32 41.4727C143.086 41.4727 143.652 41.6426 144.02 41.9824C144.391 42.3223 144.576 42.8672 144.576 43.6172V48H143.855ZM141.658 47.3145C142.264 47.3145 142.738 47.1484 143.082 46.8164C143.43 46.4844 143.604 46.0195 143.604 45.4219V44.8418L142.631 44.8828C141.857 44.9102 141.299 45.0312 140.955 45.2461C140.615 45.457 140.445 45.7871 140.445 46.2363C140.445 46.5879 140.551 46.8555 140.762 47.0391C140.977 47.2227 141.275 47.3145 141.658 47.3145ZM154.771 48V43.8223C154.771 43.3105 154.662 42.9277 154.443 42.6738C154.225 42.416 153.885 42.2871 153.424 42.2871C152.818 42.2871 152.371 42.4609 152.082 42.8086C151.793 43.1562 151.648 43.6914 151.648 44.4141V48H150.676V43.8223C150.676 43.3105 150.566 42.9277 150.348 42.6738C150.129 42.416 149.787 42.2871 149.322 42.2871C148.713 42.2871 148.266 42.4707 147.98 42.8379C147.699 43.2012 147.559 43.7988 147.559 44.6309V48H146.586V41.5781H147.377L147.535 42.457H147.582C147.766 42.1445 148.023 41.9004 148.355 41.7246C148.691 41.5488 149.066 41.4609 149.48 41.4609C150.484 41.4609 151.141 41.8242 151.449 42.5508H151.496C151.688 42.2148 151.965 41.9492 152.328 41.7539C152.691 41.5586 153.105 41.4609 153.57 41.4609C154.297 41.4609 154.84 41.6484 155.199 42.0234C155.562 42.3945 155.744 42.9902 155.744 43.8105V48H154.771ZM163.297 44.7832C163.297 45.8301 163.033 46.6484 162.506 47.2383C161.979 47.8242 161.25 48.1172 160.32 48.1172C159.746 48.1172 159.236 47.9824 158.791 47.7129C158.346 47.4434 158.002 47.0566 157.76 46.5527C157.518 46.0488 157.396 45.459 157.396 44.7832C157.396 43.7363 157.658 42.9219 158.182 42.3398C158.705 41.7539 159.432 41.4609 160.361 41.4609C161.26 41.4609 161.973 41.7598 162.5 42.3574C163.031 42.9551 163.297 43.7637 163.297 44.7832ZM158.404 44.7832C158.404 45.6035 158.568 46.2285 158.896 46.6582C159.225 47.0879 159.707 47.3027 160.344 47.3027C160.98 47.3027 161.463 47.0898 161.791 46.6641C162.123 46.2344 162.289 45.6074 162.289 44.7832C162.289 43.9668 162.123 43.3477 161.791 42.9258C161.463 42.5 160.977 42.2871 160.332 42.2871C159.695 42.2871 159.215 42.4961 158.891 42.9141C158.566 43.332 158.404 43.9551 158.404 44.7832ZM159.529 40.582C159.717 40.3398 159.918 40.0469 160.133 39.7031C160.352 39.3594 160.523 39.0605 160.648 38.8066H161.832V38.9297C161.66 39.1836 161.404 39.4961 161.064 39.8672C160.725 40.2383 160.43 40.5254 160.18 40.7285H159.529V40.582ZM169.402 48V43.8457C169.402 43.3223 169.283 42.9316 169.045 42.6738C168.807 42.416 168.434 42.2871 167.926 42.2871C167.254 42.2871 166.762 42.4688 166.449 42.832C166.137 43.1953 165.98 43.7949 165.98 44.6309V48H165.008V41.5781H165.799L165.957 42.457H166.004C166.203 42.1406 166.482 41.8965 166.842 41.7246C167.201 41.5488 167.602 41.4609 168.043 41.4609C168.816 41.4609 169.398 41.6484 169.789 42.0234C170.18 42.3945 170.375 42.9902 170.375 43.8105V48H169.402ZM179.311 40.2012C178.369 40.2012 177.625 40.5156 177.078 41.1445C176.535 41.7695 176.264 42.627 176.264 43.7168C176.264 44.8379 176.525 45.7051 177.049 46.3184C177.576 46.9277 178.326 47.2324 179.299 47.2324C179.896 47.2324 180.578 47.125 181.344 46.9102V47.7832C180.75 48.0059 180.018 48.1172 179.146 48.1172C177.885 48.1172 176.91 47.7344 176.223 46.9688C175.539 46.2031 175.197 45.1152 175.197 43.7051C175.197 42.8223 175.361 42.0488 175.689 41.3848C176.021 40.7207 176.498 40.209 177.119 39.8496C177.744 39.4902 178.479 39.3105 179.322 39.3105C180.221 39.3105 181.006 39.4746 181.678 39.8027L181.256 40.6582C180.607 40.3535 179.959 40.2012 179.311 40.2012ZM187.016 48L186.822 47.0859H186.775C186.455 47.4883 186.135 47.7617 185.814 47.9062C185.498 48.0469 185.102 48.1172 184.625 48.1172C183.988 48.1172 183.488 47.9531 183.125 47.625C182.766 47.2969 182.586 46.8301 182.586 46.2246C182.586 44.9277 183.623 44.248 185.697 44.1855L186.787 44.1504V43.752C186.787 43.248 186.678 42.877 186.459 42.6387C186.244 42.3965 185.898 42.2754 185.422 42.2754C184.887 42.2754 184.281 42.4395 183.605 42.7676L183.307 42.0234C183.623 41.8516 183.969 41.7168 184.344 41.6191C184.723 41.5215 185.102 41.4727 185.48 41.4727C186.246 41.4727 186.812 41.6426 187.18 41.9824C187.551 42.3223 187.736 42.8672 187.736 43.6172V48H187.016ZM184.818 47.3145C185.424 47.3145 185.898 47.1484 186.242 46.8164C186.59 46.4844 186.764 46.0195 186.764 45.4219V44.8418L185.791 44.8828C185.018 44.9102 184.459 45.0312 184.115 45.2461C183.775 45.457 183.605 45.7871 183.605 46.2363C183.605 46.5879 183.711 46.8555 183.922 47.0391C184.137 47.2227 184.436 47.3145 184.818 47.3145ZM193.889 46.248C193.889 46.8457 193.666 47.3066 193.221 47.6309C192.775 47.9551 192.15 48.1172 191.346 48.1172C190.494 48.1172 189.83 47.9824 189.354 47.7129V46.8105C189.662 46.9668 189.992 47.0898 190.344 47.1797C190.699 47.2695 191.041 47.3145 191.369 47.3145C191.877 47.3145 192.268 47.2344 192.541 47.0742C192.814 46.9102 192.951 46.6621 192.951 46.3301C192.951 46.0801 192.842 45.8672 192.623 45.6914C192.408 45.5117 191.986 45.3008 191.357 45.0586C190.76 44.8359 190.334 44.6426 190.08 44.4785C189.83 44.3105 189.643 44.1211 189.518 43.9102C189.396 43.6992 189.336 43.4473 189.336 43.1543C189.336 42.6309 189.549 42.2188 189.975 41.918C190.4 41.6133 190.984 41.4609 191.727 41.4609C192.418 41.4609 193.094 41.6016 193.754 41.8828L193.408 42.6738C192.764 42.4082 192.18 42.2754 191.656 42.2754C191.195 42.2754 190.848 42.3477 190.613 42.4922C190.379 42.6367 190.262 42.8359 190.262 43.0898C190.262 43.2617 190.305 43.4082 190.391 43.5293C190.48 43.6504 190.623 43.7656 190.818 43.875C191.014 43.9844 191.389 44.1426 191.943 44.3496C192.705 44.627 193.219 44.9062 193.484 45.1875C193.754 45.4688 193.889 45.8223 193.889 46.248ZM197.551 47.3145C197.723 47.3145 197.889 47.3027 198.049 47.2793C198.209 47.252 198.336 47.2246 198.43 47.1973V47.9414C198.324 47.9922 198.168 48.0332 197.961 48.0645C197.758 48.0996 197.574 48.1172 197.41 48.1172C196.168 48.1172 195.547 47.4629 195.547 46.1543V42.334H194.627V41.8652L195.547 41.4609L195.957 40.0898H196.52V41.5781H198.383V42.334H196.52V46.1133C196.52 46.5 196.611 46.7969 196.795 47.0039C196.979 47.2109 197.23 47.3145 197.551 47.3145ZM200.691 48H199.719V41.5781H200.691V48ZM199.637 39.8379C199.637 39.6152 199.691 39.4531 199.801 39.3516C199.91 39.2461 200.047 39.1934 200.211 39.1934C200.367 39.1934 200.502 39.2461 200.615 39.3516C200.729 39.457 200.785 39.6191 200.785 39.8379C200.785 40.0566 200.729 40.2207 200.615 40.3301C200.502 40.4355 200.367 40.4883 200.211 40.4883C200.047 40.4883 199.91 40.4355 199.801 40.3301C199.691 40.2207 199.637 40.0566 199.637 39.8379ZM203.727 48H202.754V38.8828H203.727V48ZM206.762 48H205.789V38.8828H206.762V48ZM212.773 48L212.58 47.0859H212.533C212.213 47.4883 211.893 47.7617 211.572 47.9062C211.256 48.0469 210.859 48.1172 210.383 48.1172C209.746 48.1172 209.246 47.9531 208.883 47.625C208.523 47.2969 208.344 46.8301 208.344 46.2246C208.344 44.9277 209.381 44.248 211.455 44.1855L212.545 44.1504V43.752C212.545 43.248 212.436 42.877 212.217 42.6387C212.002 42.3965 211.656 42.2754 211.18 42.2754C210.645 42.2754 210.039 42.4395 209.363 42.7676L209.064 42.0234C209.381 41.8516 209.727 41.7168 210.102 41.6191C210.48 41.5215 210.859 41.4727 211.238 41.4727C212.004 41.4727 212.57 41.6426 212.938 41.9824C213.309 42.3223 213.494 42.8672 213.494 43.6172V48H212.773ZM210.576 47.3145C211.182 47.3145 211.656 47.1484 212 46.8164C212.348 46.4844 212.521 46.0195 212.521 45.4219V44.8418L211.549 44.8828C210.775 44.9102 210.217 45.0312 209.873 45.2461C209.533 45.457 209.363 45.7871 209.363 46.2363C209.363 46.5879 209.469 46.8555 209.68 47.0391C209.895 47.2227 210.193 47.3145 210.576 47.3145ZM221.779 48H220.83V41.8945C220.83 41.3867 220.846 40.9062 220.877 40.4531C220.795 40.5352 220.703 40.6211 220.602 40.7109C220.5 40.8008 220.035 41.1816 219.207 41.8535L218.691 41.1855L220.959 39.4336H221.779V48ZM228.646 48H227.697V41.8945C227.697 41.3867 227.713 40.9062 227.744 40.4531C227.662 40.5352 227.57 40.6211 227.469 40.7109C227.367 40.8008 226.902 41.1816 226.074 41.8535L225.559 41.1855L227.826 39.4336H228.646V48ZM234.588 42.7676C235.49 42.7676 236.199 42.9922 236.715 43.4414C237.234 43.8867 237.494 44.498 237.494 45.2754C237.494 46.1621 237.211 46.8574 236.645 47.3613C236.082 47.8652 235.305 48.1172 234.312 48.1172C233.348 48.1172 232.611 47.9629 232.104 47.6543V46.7168C232.377 46.8926 232.717 47.0312 233.123 47.1328C233.529 47.2305 233.93 47.2793 234.324 47.2793C235.012 47.2793 235.545 47.1172 235.924 46.793C236.307 46.4688 236.498 46 236.498 45.3867C236.498 44.1914 235.766 43.5938 234.301 43.5938C233.93 43.5938 233.434 43.6504 232.812 43.7637L232.309 43.4414L232.631 39.4336H236.891V40.3301H233.463L233.246 42.9023C233.695 42.8125 234.143 42.7676 234.588 42.7676ZM241.455 42.7676C242.357 42.7676 243.066 42.9922 243.582 43.4414C244.102 43.8867 244.361 44.498 244.361 45.2754C244.361 46.1621 244.078 46.8574 243.512 47.3613C242.949 47.8652 242.172 48.1172 241.18 48.1172C240.215 48.1172 239.479 47.9629 238.971 47.6543V46.7168C239.244 46.8926 239.584 47.0312 239.99 47.1328C240.396 47.2305 240.797 47.2793 241.191 47.2793C241.879 47.2793 242.412 47.1172 242.791 46.793C243.174 46.4688 243.365 46 243.365 45.3867C243.365 44.1914 242.633 43.5938 241.168 43.5938C240.797 43.5938 240.301 43.6504 239.68 43.7637L239.176 43.4414L239.498 39.4336H243.758V40.3301H240.33L240.113 42.9023C240.562 42.8125 241.01 42.7676 241.455 42.7676Z" fill="#A9A9A9"/>
<path d="M71.9453 26H66.374V16.0059H71.9453V17.0381H67.5361V20.2578H71.6787V21.2832H67.5361V24.9609H71.9453V26ZM79.123 26V21.1533C79.123 20.5426 78.984 20.0869 78.7061 19.7861C78.4281 19.4854 77.9928 19.335 77.4004 19.335C76.6165 19.335 76.0423 19.5469 75.6777 19.9707C75.3132 20.3945 75.1309 21.0941 75.1309 22.0693V26H73.9961V18.5078H74.9189L75.1035 19.5332H75.1582C75.3906 19.1641 75.7165 18.8792 76.1357 18.6787C76.555 18.4736 77.0221 18.3711 77.5371 18.3711C78.4395 18.3711 79.1185 18.5898 79.5742 19.0273C80.0299 19.4603 80.2578 20.1553 80.2578 21.1123V26H79.123ZM85.0156 25.2002C85.2161 25.2002 85.4098 25.1865 85.5967 25.1592C85.7835 25.1273 85.9316 25.0954 86.041 25.0635V25.9316C85.918 25.9909 85.7357 26.0387 85.4941 26.0752C85.2572 26.1162 85.043 26.1367 84.8516 26.1367C83.4023 26.1367 82.6777 25.3734 82.6777 23.8467V19.3896H81.6045V18.8428L82.6777 18.3711L83.1562 16.7715H83.8125V18.5078H85.9863V19.3896H83.8125V23.7988C83.8125 24.25 83.9196 24.5964 84.1338 24.8379C84.348 25.0794 84.6419 25.2002 85.0156 25.2002ZM90.9629 18.3711C91.2956 18.3711 91.5941 18.3984 91.8584 18.4531L91.7012 19.5059C91.3913 19.4375 91.1178 19.4033 90.8809 19.4033C90.2747 19.4033 89.7552 19.6494 89.3223 20.1416C88.8939 20.6338 88.6797 21.2467 88.6797 21.9805V26H87.5449V18.5078H88.4814L88.6113 19.8955H88.666C88.944 19.4079 89.279 19.0319 89.6709 18.7676C90.0628 18.5033 90.4935 18.3711 90.9629 18.3711ZM96.4248 26.1367C95.3174 26.1367 94.4424 25.7995 93.7998 25.125C93.1618 24.4505 92.8428 23.514 92.8428 22.3154C92.8428 21.1077 93.139 20.1484 93.7314 19.4375C94.3285 18.7266 95.1283 18.3711 96.1309 18.3711C97.0697 18.3711 97.8125 18.681 98.3594 19.3008C98.9062 19.916 99.1797 20.7295 99.1797 21.7412V22.459H94.0186C94.0413 23.3385 94.2624 24.0062 94.6816 24.4619C95.1055 24.9176 95.7002 25.1455 96.4658 25.1455C97.2725 25.1455 98.07 24.9769 98.8584 24.6396V25.6514C98.4574 25.8245 98.0768 25.9476 97.7168 26.0205C97.3613 26.098 96.9307 26.1367 96.4248 26.1367ZM96.1172 19.3213C95.5156 19.3213 95.0348 19.5173 94.6748 19.9092C94.3193 20.3011 94.1097 20.8434 94.0459 21.5361H97.9629C97.9629 20.8206 97.8034 20.2738 97.4844 19.8955C97.1654 19.5127 96.7096 19.3213 96.1172 19.3213ZM107.253 18.5078V19.2256L105.865 19.3896C105.993 19.5492 106.107 19.7588 106.207 20.0186C106.307 20.2738 106.357 20.5632 106.357 20.8867C106.357 21.6204 106.107 22.2061 105.605 22.6436C105.104 23.0811 104.416 23.2998 103.541 23.2998C103.318 23.2998 103.108 23.2816 102.912 23.2451C102.429 23.5003 102.188 23.8216 102.188 24.209C102.188 24.4141 102.272 24.5667 102.44 24.667C102.609 24.7627 102.898 24.8105 103.309 24.8105H104.635C105.446 24.8105 106.068 24.9814 106.501 25.3232C106.938 25.665 107.157 26.1618 107.157 26.8135C107.157 27.6429 106.825 28.2741 106.159 28.707C105.494 29.1445 104.523 29.3633 103.247 29.3633C102.267 29.3633 101.511 29.181 100.978 28.8164C100.449 28.4518 100.185 27.9368 100.185 27.2715C100.185 26.8158 100.33 26.4215 100.622 26.0889C100.914 25.7562 101.324 25.5306 101.853 25.4121C101.661 25.3255 101.499 25.1911 101.367 25.0088C101.24 24.8265 101.176 24.6146 101.176 24.373C101.176 24.0996 101.249 23.8604 101.395 23.6553C101.54 23.4502 101.771 23.252 102.085 23.0605C101.698 22.901 101.381 22.6299 101.135 22.2471C100.893 21.8643 100.772 21.4268 100.772 20.9346C100.772 20.1143 101.019 19.4831 101.511 19.041C102.003 18.5944 102.7 18.3711 103.603 18.3711C103.994 18.3711 104.348 18.4167 104.662 18.5078H107.253ZM101.278 27.2578C101.278 27.6634 101.449 27.971 101.791 28.1807C102.133 28.3903 102.623 28.4951 103.261 28.4951C104.213 28.4951 104.917 28.3516 105.373 28.0645C105.833 27.7819 106.063 27.3968 106.063 26.9092C106.063 26.5036 105.938 26.221 105.688 26.0615C105.437 25.9066 104.965 25.8291 104.272 25.8291H102.912C102.397 25.8291 101.996 25.9521 101.709 26.1982C101.422 26.4443 101.278 26.7975 101.278 27.2578ZM101.894 20.9072C101.894 21.4313 102.042 21.8278 102.338 22.0967C102.634 22.3656 103.047 22.5 103.575 22.5C104.683 22.5 105.236 21.9622 105.236 20.8867C105.236 19.7611 104.676 19.1982 103.555 19.1982C103.021 19.1982 102.611 19.3418 102.324 19.6289C102.037 19.916 101.894 20.3421 101.894 20.9072ZM113.398 26L113.173 24.9336H113.118C112.744 25.403 112.371 25.722 111.997 25.8906C111.628 26.0547 111.165 26.1367 110.609 26.1367C109.867 26.1367 109.283 25.9453 108.859 25.5625C108.44 25.1797 108.23 24.6351 108.23 23.9287C108.23 22.4157 109.44 21.6227 111.86 21.5498L113.132 21.5088V21.0439C113.132 20.4561 113.004 20.0231 112.749 19.7451C112.498 19.4626 112.095 19.3213 111.539 19.3213C110.915 19.3213 110.208 19.5127 109.42 19.8955L109.071 19.0273C109.44 18.8268 109.844 18.6696 110.281 18.5557C110.723 18.4417 111.165 18.3848 111.607 18.3848C112.501 18.3848 113.161 18.583 113.59 18.9795C114.023 19.376 114.239 20.0117 114.239 20.8867V26H113.398ZM110.835 25.2002C111.541 25.2002 112.095 25.0065 112.496 24.6191C112.902 24.2318 113.104 23.6895 113.104 22.9922V22.3154L111.97 22.3633C111.067 22.3952 110.416 22.5365 110.015 22.7871C109.618 23.0332 109.42 23.4183 109.42 23.9424C109.42 24.3525 109.543 24.6647 109.789 24.8789C110.04 25.0931 110.388 25.2002 110.835 25.2002ZM120.002 18.3711C120.335 18.3711 120.633 18.3984 120.897 18.4531L120.74 19.5059C120.43 19.4375 120.157 19.4033 119.92 19.4033C119.314 19.4033 118.794 19.6494 118.361 20.1416C117.933 20.6338 117.719 21.2467 117.719 21.9805V26H116.584V18.5078H117.521L117.65 19.8955H117.705C117.983 19.4079 118.318 19.0319 118.71 18.7676C119.102 18.5033 119.533 18.3711 120.002 18.3711ZM129.101 26.1367C127.993 26.1367 127.118 25.7995 126.476 25.125C125.838 24.4505 125.519 23.514 125.519 22.3154C125.519 21.1077 125.815 20.1484 126.407 19.4375C127.004 18.7266 127.804 18.3711 128.807 18.3711C129.745 18.3711 130.488 18.681 131.035 19.3008C131.582 19.916 131.855 20.7295 131.855 21.7412V22.459H126.694C126.717 23.3385 126.938 24.0062 127.357 24.4619C127.781 24.9176 128.376 25.1455 129.142 25.1455C129.948 25.1455 130.746 24.9769 131.534 24.6396V25.6514C131.133 25.8245 130.753 25.9476 130.393 26.0205C130.037 26.098 129.606 26.1367 129.101 26.1367ZM128.793 19.3213C128.191 19.3213 127.711 19.5173 127.351 19.9092C126.995 20.3011 126.785 20.8434 126.722 21.5361H130.639C130.639 20.8206 130.479 20.2738 130.16 19.8955C129.841 19.5127 129.385 19.3213 128.793 19.3213ZM138.924 26V21.1533C138.924 20.5426 138.785 20.0869 138.507 19.7861C138.229 19.4854 137.794 19.335 137.201 19.335C136.417 19.335 135.843 19.5469 135.479 19.9707C135.114 20.3945 134.932 21.0941 134.932 22.0693V26H133.797V18.5078H134.72L134.904 19.5332H134.959C135.191 19.1641 135.517 18.8792 135.937 18.6787C136.356 18.4736 136.823 18.3711 137.338 18.3711C138.24 18.3711 138.919 18.5898 139.375 19.0273C139.831 19.4603 140.059 20.1553 140.059 21.1123V26H138.924ZM142.232 25.2754C142.232 24.9701 142.301 24.7399 142.438 24.585C142.579 24.4255 142.779 24.3457 143.039 24.3457C143.303 24.3457 143.508 24.4255 143.654 24.585C143.805 24.7399 143.88 24.9701 143.88 25.2754C143.88 25.5716 143.805 25.7995 143.654 25.959C143.504 26.1185 143.299 26.1982 143.039 26.1982C142.807 26.1982 142.613 26.1276 142.458 25.9863C142.308 25.8405 142.232 25.6035 142.232 25.2754ZM142.232 19.2393C142.232 18.624 142.501 18.3164 143.039 18.3164C143.6 18.3164 143.88 18.624 143.88 19.2393C143.88 19.5355 143.805 19.7633 143.654 19.9229C143.504 20.0824 143.299 20.1621 143.039 20.1621C142.807 20.1621 142.613 20.0915 142.458 19.9502C142.308 19.8044 142.232 19.5674 142.232 19.2393Z" fill="#606060"/>
<path d="M352.155 24.1531C351.948 24.3604 351.948 24.6959 352.155 24.9031L358.738 31.4932L352.155 38.0962C351.949 38.3033 351.949 38.6381 352.155 38.8452C352.254 38.9443 352.388 39 352.529 39C352.669 39 352.803 38.9443 352.902 38.8452L359.845 31.8802C359.945 31.7817 360.001 31.6467 360 31.5062C359.999 31.3658 359.943 31.2313 359.845 31.1312L352.902 24.1661C352.806 24.0625 352.672 24.0025 352.531 24.0001C352.39 23.9976 352.254 24.0529 352.155 24.1531Z" fill="#606060"/>
<path d="M53.1818 33.3346C52.6363 33.3346 52.2727 33.7015 52.2727 34.2518V46.1765C52.2727 46.7269 51.9091 47.0938 51.3637 47.0938H18.6363C18.0909 47.0938 17.7273 46.7268 17.7273 46.1765V34.2518C17.7273 33.7015 17.3636 33.3346 16.8182 33.3346C16.2728 33.3346 15.9091 33.7015 15.9091 34.2518V46.1765C15.9091 47.7359 17.0909 48.9284 18.6364 48.9284H51.3637C52.9091 48.9284 54.0909 47.7359 54.0909 46.1765V34.2518C54.0909 33.7015 53.7273 33.3346 53.1818 33.3346Z" fill="#35B266"/>
<path fill-rule="evenodd" clip-rule="evenodd" d="M52.2727 20.4927H17.7273C16.1818 20.4927 15 21.6851 15 23.2445V29.1151C15 30.3993 15.9091 31.5 17.0909 31.7752L31.3637 34.9857V37.9209C31.3637 38.4713 31.7273 38.8382 32.2727 38.8382H37.7273C38.2727 38.8382 38.6363 38.4712 38.6363 37.9209V34.9857L52.9091 31.7752C54.0909 31.5 55 30.3993 55 29.1151V23.2444C55 21.6851 53.8182 20.4927 52.2727 20.4927ZM36.8182 37.0037H33.1819V33.3346H36.8182V37.0037ZM52.4545 30.0323C52.9091 29.9406 53.1818 29.5737 53.1818 29.1151V23.2445C53.1818 22.6942 52.8182 22.3273 52.2727 22.3273H17.7273C17.1819 22.3273 16.8182 22.6941 16.8182 23.2445V29.1151C16.8182 29.5738 17.0909 29.9406 17.5455 30.0324L31.3637 33.1511V32.4173C31.3637 31.867 31.7273 31.5 32.2727 31.5H37.7273C38.2727 31.5 38.6363 31.8669 38.6363 32.4173V33.1511L52.4545 30.0323Z" fill="#35B266"/>
<path d="M39.5455 14.0717H30.4545C28.9091 14.0717 27.7273 15.2641 27.7273 16.8235V17.7407C27.7273 18.2911 28.0909 18.658 28.6363 18.658C29.1817 18.658 29.5454 18.291 29.5454 17.7407V16.8235C29.5454 16.2731 29.9091 15.9062 30.4545 15.9062H39.5454C40.0909 15.9062 40.4545 16.2732 40.4545 16.8235V17.7407C40.4545 18.2911 40.8181 18.658 41.3635 18.658C41.909 18.658 42.2726 18.291 42.2726 17.7407V16.8235C42.2727 15.2641 41.0909 14.0717 39.5455 14.0717Z" fill="#35B266"/>
</svg>
