<svg width="21" height="19" viewBox="0 0 21 19" fill="none" xmlns="http://www.w3.org/2000/svg">
<path fill-rule="evenodd" clip-rule="evenodd" d="M15.4219 0C16.9952 0 18.4321 0.662838 19.4678 1.86645C20.4558 3.01465 21 4.55237 21 6.19636C21 7.98589 20.3178 9.65029 18.853 11.4344C17.5439 13.0289 15.6606 14.6725 13.4799 16.5756L13.4723 16.5822C12.6619 17.2895 11.824 18.0208 10.9321 18.8199L10.9052 18.844C10.7892 18.948 10.6446 19 10.5 19C10.3554 19 10.2108 18.948 10.0948 18.844L10.0679 18.8199C9.17341 18.0184 8.3332 17.2852 7.52071 16.5761L7.52022 16.5756C5.33937 14.6724 3.45606 13.0289 2.14696 11.4344C0.682213 9.65034 0 7.98589 0 6.19636C0 4.55237 0.544154 3.01465 1.53214 1.86649C2.56795 0.66288 4.00485 0 5.57812 0C7.79084 0 9.19172 1.3534 9.97726 2.48879C10.1811 2.78341 10.3544 3.07883 10.5 3.35682C10.6456 3.07883 10.8189 2.78341 11.0227 2.48879C11.8083 1.3534 13.2092 0 15.4219 0ZM10.5 17.5339C11.2602 16.857 11.9812 16.2278 12.6817 15.6165C16.9499 11.8917 19.7695 9.43103 19.7695 6.19636C19.7695 4.85934 19.3346 3.61751 18.5447 2.69966C17.7458 1.77139 16.6368 1.26015 15.4219 1.26015C13.7349 1.26015 12.6445 2.32447 12.0268 3.21728C11.4727 4.01811 11.1836 4.82536 11.085 5.13523C11.0025 5.39461 10.7664 5.57015 10.5 5.57015C10.2336 5.57015 9.99752 5.39461 9.91504 5.13523C9.81643 4.82536 9.52731 4.01811 8.97323 3.21732C8.35554 2.32447 7.26506 1.26015 5.57812 1.26015C4.3632 1.26015 3.25418 1.77139 2.45528 2.69966C1.66544 3.61751 1.23047 4.85934 1.23047 6.19636C1.23047 9.43103 4.05009 11.8917 8.31813 15.6164C9.0188 16.2279 9.73982 16.8571 10.5 17.5339Z" fill="#A9A9A9"/>
</svg>
