<svg width="20" height="20" viewBox="0 0 20 20" fill="none" xmlns="http://www.w3.org/2000/svg">
<path fill-rule="evenodd" clip-rule="evenodd" d="M16.7207 9.29707C18.601 8.66837 19.9587 6.88561 19.9587 4.77988C19.9544 2.15311 17.8386 0.0258516 15.226 0.0215454C13.1359 0.0215454 11.3627 1.38661 10.7374 3.27702L9.52106 2.05407L9.41399 1.94641C8.55311 1.08087 8.01774 0.585656 6.99839 0.413408C6.75426 0.370347 6.5187 0.538288 6.47587 0.783741C6.43304 1.02919 6.60008 1.26603 6.84849 1.3091C7.51323 1.42049 7.84729 1.72795 8.399 2.23572L8.40749 2.24354L8.44176 2.27799L6.41591 4.31481C5.8891 4.84448 5.8891 5.70141 6.41591 6.23107C6.93415 6.75212 7.80359 6.75212 8.32183 6.23107L10.3605 4.18132L10.519 4.34065C10.5061 4.48706 10.4976 4.63347 10.4976 4.78419C10.4976 5.57653 10.6903 6.3258 11.033 6.98034L10.0479 7.96646C9.52106 8.49182 9.52106 9.34875 10.0436 9.8741C10.2963 10.1325 10.6432 10.2746 11.003 10.2746C11.3585 10.2789 11.7011 10.1368 11.9538 9.88271L12.9046 8.92674C13.5899 9.3186 14.3865 9.53822 15.2303 9.53822C15.3759 9.53822 15.5215 9.52961 15.6671 9.51669L15.7185 9.56836L13.6798 11.6181C13.153 12.1478 13.153 13.0047 13.6798 13.5344C14.2109 14.0554 15.0547 14.0554 15.5858 13.5344L16.9306 12.1822L17.6116 11.4975C18.3269 12.3415 18.6652 13.276 18.6267 14.2793C18.5881 15.1836 18.2498 16.1568 17.6202 17.1645L16.9991 18.0472C16.7764 18.3315 16.5366 18.6114 16.2839 18.8783C16.1811 18.986 16.0355 19.0506 15.8856 19.0506C15.7357 19.0549 15.5858 18.9946 15.4787 18.887L1.87596 5.21481L1.08789 4.42247C0.980816 4.31481 0.925137 4.1641 0.925137 4.01338C0.925137 3.86266 0.989382 3.71625 1.09646 3.61291C3.05806 1.75263 4.66846 1.34785 5.45652 1.27465C5.70494 1.26173 5.89767 1.05072 5.8891 0.800965C5.87625 0.551206 5.66639 0.357428 5.41798 0.36604C5.40513 0.36604 5.38799 0.36604 5.37515 0.370347C3.27221 0.568431 1.40483 2.0756 0.479708 2.95406C-0.10706 3.52248 -0.124191 4.46553 0.441161 5.05548L0.449727 5.06409L12.8661 17.5477L14.8362 19.5286C15.1146 19.8042 15.4872 19.9549 15.8727 19.9549H15.8941C16.2882 19.9506 16.6651 19.7869 16.9349 19.5027C17.2047 19.2142 17.466 18.9128 17.7058 18.6027L18.374 17.6597L18.3783 17.6554C19.0978 16.5056 19.4833 15.386 19.5261 14.3181C19.5818 12.9143 19.0464 11.6396 17.9414 10.5243L16.7207 9.29707ZM7.67939 5.58945C7.50807 5.76169 7.22539 5.76169 7.05407 5.58945C6.88275 5.4172 6.88275 5.13299 7.05407 4.96074L9.09277 2.911L9.71808 3.5397L7.67939 5.58945ZM10.686 9.24109C10.8574 9.41334 11.1357 9.41334 11.3113 9.24109L12.1508 8.40139C11.9281 8.20761 11.7182 7.9923 11.5341 7.75976L10.686 8.61239C10.5147 8.78464 10.5147 9.06884 10.686 9.24109ZM13.47 8.35402C13.1916 8.21622 12.9303 8.04397 12.6947 7.84589C12.4635 7.65211 12.2536 7.43249 12.0737 7.19565C12.0652 7.18274 12.0566 7.17089 12.048 7.15905C12.0395 7.14721 12.0309 7.13537 12.0223 7.12245C12.0202 7.1203 12.018 7.11706 12.0159 7.11384C12.0138 7.11061 12.0116 7.10738 12.0095 7.10522C12.0032 7.09575 11.9963 7.08628 11.9893 7.0766C11.9772 7.05986 11.9646 7.0425 11.9538 7.02341C11.9522 7.02176 11.9511 7.02012 11.9503 7.01871C11.9489 7.01644 11.9479 7.01479 11.9452 7.01479C11.9345 6.99973 11.9249 6.98466 11.9153 6.96959L11.9152 6.96958L11.9152 6.96957C11.9056 6.9545 11.896 6.93943 11.8853 6.92436C11.8831 6.92006 11.8799 6.91575 11.8767 6.91145C11.8735 6.90714 11.8703 6.90283 11.8681 6.89853L11.8296 6.83393C11.821 6.82101 11.8125 6.8081 11.8082 6.79518C11.8039 6.78656 11.7985 6.77795 11.7932 6.76934C11.7878 6.76073 11.7825 6.75212 11.7782 6.7435C11.7739 6.73489 11.7696 6.72736 11.7653 6.71982C11.7611 6.71228 11.7568 6.70475 11.7525 6.69614C11.7482 6.68752 11.7439 6.67999 11.7396 6.67245C11.7354 6.66492 11.7311 6.65738 11.7268 6.64877L11.7011 6.59709C11.699 6.59063 11.6957 6.58525 11.6925 6.57987C11.6893 6.57449 11.6861 6.5691 11.684 6.56264C11.6713 6.53965 11.6601 6.51514 11.6486 6.49001L11.6486 6.49C11.6407 6.47278 11.6327 6.45527 11.624 6.43776L11.6206 6.4316C11.6177 6.42654 11.6154 6.42254 11.6154 6.41623C11.4056 5.94686 11.2814 5.43012 11.2685 4.88323V4.77988C11.2685 2.57942 13.0417 0.796659 15.2303 0.796659C17.4189 0.796659 19.1877 2.57942 19.192 4.77988C19.192 6.7392 17.7829 8.36694 15.9327 8.69851H15.9284C15.8984 8.70282 15.8684 8.70712 15.8384 8.71574H15.8256C15.8106 8.71789 15.7967 8.72004 15.7828 8.7222C15.7688 8.72435 15.7549 8.7265 15.7399 8.72866H15.7228C15.6971 8.73296 15.6671 8.73727 15.6414 8.73727H15.62C15.6072 8.73942 15.5933 8.7405 15.5793 8.74157C15.5654 8.74265 15.5515 8.74373 15.5386 8.74588H15.5129C15.5001 8.74588 15.4872 8.74696 15.4744 8.74803C15.4615 8.74911 15.4487 8.75019 15.4359 8.75019H15.4059C15.393 8.75019 15.3812 8.75126 15.3695 8.75234C15.3577 8.75342 15.3459 8.75449 15.3331 8.75449H15.2303C15.1189 8.75449 15.0118 8.75019 14.9048 8.74157C14.3908 8.71143 13.9068 8.56933 13.47 8.35402ZM14.318 12.8927C14.4893 13.065 14.7677 13.065 14.9433 12.8927L16.982 10.843L16.3567 10.2143L14.318 12.264C14.1467 12.4363 14.1467 12.7205 14.318 12.8927Z" fill="#35B266"/>
<path d="M16.6479 6.70476C16.785 6.84256 17.0077 6.84256 17.1447 6.70476C17.2818 6.56696 17.2818 6.34304 17.1447 6.20524L15.7228 4.7799L17.1447 3.35024C17.2818 3.21244 17.2818 2.98852 17.1447 2.85072C17.0077 2.71293 16.785 2.71293 16.6479 2.85072L15.226 4.28038L13.804 2.85503C13.667 2.71723 13.4443 2.71723 13.3072 2.85503C13.1701 2.99283 13.1701 3.21675 13.3072 3.35455L14.7291 4.7799L13.3072 6.20524C13.1701 6.34304 13.1701 6.56696 13.3072 6.70476C13.4443 6.84256 13.667 6.84256 13.804 6.70476L15.226 5.27511L16.6479 6.70476Z" fill="#35B266"/>
</svg>
