<svg width="15" height="20" viewBox="0 0 15 20" fill="none" xmlns="http://www.w3.org/2000/svg">
<path d="M1.71749 16.7146C1.50891 16.7146 1.34027 16.8753 1.34027 17.074V18.3425C1.34027 18.5412 1.50891 18.7019 1.71749 18.7019C1.92607 18.7019 2.09471 18.5412 2.09471 18.3425V17.074C2.09471 16.8753 1.92607 16.7146 1.71749 16.7146Z" fill="#35B266"/>
<path d="M2.14353 7.03174C1.95713 6.94294 1.7308 7.01482 1.63761 7.19241C1.48672 7.47571 1.34027 8.06768 1.34027 8.3848V15.8097C1.34027 16.0085 1.50891 16.1692 1.71749 16.1692C1.92607 16.1692 2.09471 16.0085 2.09471 15.8097V8.38057C2.09471 8.16916 2.21009 7.69981 2.31216 7.51377C2.40536 7.33618 2.32992 7.12053 2.14353 7.03174Z" fill="#35B266"/>
<path fill-rule="evenodd" clip-rule="evenodd" d="M10.0518 0.317135C9.14648 0.317135 8.29885 0.549693 7.57548 0.959841V0.372103C7.57548 0.173372 7.40684 0.0126953 7.19826 0.0126953H2.39205C2.18347 0.0126953 2.01483 0.173372 2.01483 0.372103V1.6406C2.01483 1.83933 2.18347 2.00001 2.39205 2.00001H2.45862V2.82453L0.44826 6.61735C0.19974 7.08246 0.00891113 7.85625 0.00891113 8.38056V18.7653C0.00891113 19.4292 0.576958 19.9704 1.2737 19.9704H8.3166C9.01335 19.9704 9.5814 19.4292 9.5814 18.7653V9.6406C9.73672 9.65329 9.89649 9.66174 10.0562 9.66174C12.7633 9.66174 14.9601 7.56872 14.9601 4.98944C14.9512 2.41016 12.7589 0.321363 10.0518 0.317135ZM2.76927 0.731511H6.82104V1.28119H2.76927V0.731511ZM3.21305 2.91333C3.21305 2.9683 3.19974 3.02327 3.17311 3.07401L1.93495 5.42073C2.12134 5.49261 2.29885 5.58563 2.45418 5.70826C2.64944 5.84779 2.78258 5.94081 3.08435 5.94081C3.3818 5.94081 3.5111 5.85044 3.70598 5.71423L3.71453 5.70826C3.94974 5.53912 4.24264 5.33193 4.79737 5.33193C4.93938 5.33193 5.05921 5.34462 5.17015 5.36576C5.15684 5.24314 5.1524 5.11629 5.1524 4.98944C5.1524 4.37633 5.27666 3.79282 5.49856 3.26005L5.48861 3.26166C5.46622 3.26529 5.44636 3.26851 5.42311 3.26851H4.1672C3.95862 3.26851 3.78998 3.10783 3.78998 2.9091C3.78998 2.71037 3.95862 2.54969 4.1672 2.54969H5.42311C5.56512 2.54969 5.69382 2.6258 5.75595 2.73997C5.90684 2.47781 6.08435 2.22834 6.28406 2.00001H3.21305V2.91333ZM8.82252 18.7653C8.82252 19.0317 8.59175 19.2516 8.31217 19.2516H1.2737C0.994118 19.2516 0.763349 19.0317 0.763349 18.7653V8.38056C0.763349 7.96618 0.92755 7.31079 1.12282 6.94293L1.58435 6.07189C1.7449 6.10497 1.85453 6.1825 1.98792 6.27684L1.99708 6.28331C2.23228 6.45244 2.52518 6.65963 3.07992 6.65963C3.63465 6.65963 3.92755 6.45244 4.16276 6.28331L4.17132 6.27733C4.36619 6.14112 4.49549 6.05075 4.79293 6.05075C5.03702 6.05075 5.17015 6.10995 5.3166 6.21143C5.7737 7.82665 7.11838 9.09515 8.82252 9.51375V18.7653ZM9.5814 8.87527C9.73228 8.89219 9.89205 8.90064 10.0518 8.90064C12.3196 8.90064 14.1568 7.15012 14.1568 4.99367C14.1524 2.83299 12.3196 1.08246 10.0518 1.08246C7.78406 1.08246 5.94678 2.83299 5.94678 4.99367C5.94678 5.29811 5.98228 5.58986 6.04885 5.87316C6.05329 5.87316 6.05329 5.87739 6.05329 5.88162C6.05773 5.89642 6.06106 5.91016 6.06438 5.9239C6.06771 5.93764 6.07104 5.95138 6.07548 5.96618C6.07992 5.97041 6.07992 5.97464 6.07992 5.97887C6.08879 6.00424 6.09767 6.03384 6.10654 6.06344C6.14205 6.18183 6.18643 6.29599 6.2308 6.41016C6.2333 6.41253 6.23439 6.41624 6.23565 6.42053C6.23664 6.42388 6.23773 6.42759 6.23968 6.4313L6.26631 6.49472C6.26853 6.49895 6.27075 6.50424 6.27296 6.50952C6.27518 6.51481 6.2774 6.52009 6.27962 6.52432C6.28406 6.5349 6.2885 6.54441 6.29294 6.55393C6.29737 6.56344 6.30181 6.57295 6.30625 6.58352C6.31512 6.5962 6.31956 6.60466 6.324 6.61735C6.80329 7.61946 7.71305 8.38902 8.82696 8.72305C9.07104 8.79494 9.324 8.84568 9.5814 8.87527Z" fill="#35B266"/>
<path d="M12.0355 3.09937C11.8935 2.96407 11.6628 2.96407 11.5207 3.09937L10.0474 4.50318L8.574 3.1036C8.43199 2.9683 8.20122 2.9683 8.05921 3.1036C7.91719 3.23891 7.91719 3.45878 8.05921 3.59409L9.53258 4.99367L8.05921 6.39324C7.91719 6.52855 7.91719 6.74842 8.05921 6.88373C8.20122 7.01904 8.43199 7.01904 8.574 6.88373L10.0474 5.47992L11.5207 6.88373C11.6628 7.01904 11.8935 7.01904 12.0355 6.88373C12.1775 6.74842 12.1775 6.52855 12.0355 6.39324L10.5666 4.98944L12.04 3.58563C12.1775 3.45033 12.1775 3.23468 12.0355 3.09937Z" fill="#35B266"/>
</svg>
