<svg width="18" height="20" viewBox="0 0 18 20" fill="none" xmlns="http://www.w3.org/2000/svg">
<path fill-rule="evenodd" clip-rule="evenodd" d="M13.101 0.155892C15.8054 0.160346 17.9955 2.36079 18 5.07794C18 7.79509 15.8098 9.99999 13.1054 10.0044H13.0921C13.3315 10.1737 15.3487 11.6793 15.4507 13.8441C15.4374 15.0289 15.0384 16.1782 14.3157 17.1136C14.2803 17.1626 14.2404 17.2071 14.2005 17.2516L14.2005 17.2517V17.2561L14.1739 17.2828L14.3069 18.9755L14.329 19.3363C14.4044 20.3652 13.5 19.8886 13.5 19.8886L13.1808 19.7238L11.6867 18.9309C11.68 18.9332 11.6745 18.9354 11.669 18.9376L11.6689 18.9376L11.6689 18.9376C11.6634 18.9399 11.6579 18.9421 11.6512 18.9443L11.6468 18.9399C11.5891 18.9621 11.5315 18.9799 11.4739 18.9933C10.33 19.2917 9.12411 19.2027 8.03347 18.7483C6.02066 17.7595 5.47534 15.1403 5.45318 15.0289C5.43101 14.9131 5.45318 14.7973 5.51524 14.6993C5.49215 14.6894 5.46906 14.6807 5.44619 14.672L5.44618 14.672L5.44617 14.672C5.40759 14.6575 5.36966 14.6432 5.33347 14.6236C3.31623 13.6392 2.77091 11.0156 2.74874 10.9042C2.73987 10.8597 2.73987 10.8107 2.74431 10.7661L2.73544 10.7617C2.74431 10.6993 2.76648 10.637 2.80194 10.5835C2.77313 10.5701 2.7432 10.5579 2.71327 10.5456C2.68335 10.5334 2.65342 10.5211 2.6246 10.5078C2.465 10.4276 2.30983 10.3385 2.16352 10.2361L1.41426 9.55455C1.12608 9.22493 0.877806 8.85968 0.673865 8.4677C0.492091 8.14253 0.345786 7.79954 0.239382 7.4432C0.164012 7.22493 0.101944 7.00222 0.053175 6.77505C0.00884007 6.56569 0.119677 6.35634 0.314751 6.2717C0.842338 6.06235 1.38766 5.9109 1.94628 5.82182V5.81736H1.95515C1.45416 4.61914 1.12608 3.35856 0.966476 2.0668L0.811303 1.02894L0.802436 0.979945C0.771402 0.7795 0.811303 0.570145 0.922141 0.396426C1.17042 0.00889829 1.6847 -0.106915 2.07042 0.142529L2.11475 0.169255L3.00145 0.721593C4.11869 1.37638 5.1384 2.18262 6.0384 3.11803L6.04283 3.10912L6.04726 3.11358C6.34874 2.63251 6.70342 2.18707 7.10244 1.78618L7.10244 1.78618L7.10244 1.78617L7.10245 1.78617C7.12018 1.76836 7.13791 1.75054 7.16007 1.73718C7.31524 1.63473 7.51475 1.63473 7.66549 1.74164C7.8517 1.87527 8.03347 2.02226 8.20194 2.17816C8.41032 2.35634 8.60539 2.54787 8.78273 2.75723C9.60736 1.20712 11.23 0.155892 13.101 0.155892ZM7.46155 2.72605C7.31524 2.89977 7.17781 3.07794 7.0448 3.26057C6.55268 3.93763 5.98076 4.96213 6.0251 6.02226C6.06056 6.48106 6.18914 6.93095 6.41081 7.33184C6.59258 7.56792 6.76106 7.81736 6.90293 8.08017C7.01377 8.21825 7.1246 8.35188 7.23101 8.46324C7.34628 8.58351 7.51032 8.64587 7.67436 8.63251C7.865 8.61469 8.04234 8.51669 8.15761 8.36079L8.17534 8.33407V8.32961H8.17978C8.32608 7.96435 8.50786 7.61692 8.71623 7.28284C8.38815 6.61914 8.20194 5.87081 8.20194 5.08239C8.20194 4.61023 8.26845 4.15144 8.39258 3.71937C8.06894 3.28284 7.70983 2.93986 7.46155 2.72605ZM7.82953 10.1782C7.83187 10.2088 7.83546 10.2382 7.83897 10.267C7.8421 10.2926 7.84517 10.3178 7.84726 10.343L7.8384 10.3385V10.3474C7.81789 10.3362 7.79817 10.3242 7.77824 10.312L7.77823 10.312L7.7782 10.312L7.77819 10.312C7.75074 10.2952 7.7229 10.2783 7.69209 10.2628C7.49258 10.1648 7.28421 10.0891 7.06697 10.0312C7.07583 10.0169 7.08612 10.0041 7.0964 9.99127L7.09641 9.99126C7.11184 9.97202 7.12726 9.95277 7.1379 9.92872C7.20441 9.79064 7.25317 9.64364 7.27534 9.48774H7.27978V9.48329C7.43051 9.52337 7.58125 9.54119 7.73643 9.53228C7.77633 9.52783 7.81623 9.51892 7.85613 9.51001C7.83396 9.72827 7.8251 9.95545 7.82953 10.1782ZM1.72017 0.993308L1.7113 0.988854C2.02608 3.26057 2.4384 4.96213 2.82411 5.5501C2.85259 5.59016 2.8829 5.62839 2.91269 5.66595L2.91271 5.66597L2.91279 5.66607C2.92934 5.68694 2.94573 5.70761 2.96155 5.72827C3.66204 5.70155 4.3581 5.84409 4.99652 6.13807C5.02735 6.15356 5.05519 6.17054 5.08265 6.18728L5.08266 6.18729L5.08267 6.18729L5.08267 6.18729L5.08267 6.18729L5.08268 6.1873L5.08268 6.1873L5.08269 6.1873L5.08269 6.18731L5.0827 6.18731C5.10262 6.19945 5.12233 6.21147 5.14283 6.22271V6.2138L5.1517 6.21825C5.14961 6.19307 5.14654 6.16789 5.14341 6.14224L5.14341 6.14223L5.1434 6.14221C5.13989 6.11343 5.13631 6.08406 5.13396 6.05344C5.11623 5.34966 5.26253 4.65032 5.56401 4.01335C5.54644 3.98393 5.53059 3.9545 5.51494 3.92545C5.49505 3.88855 5.4755 3.85226 5.45318 3.81736C5.06746 3.22493 3.67534 2.16925 1.72017 0.979945V0.993308ZM1.03298 6.97549C1.24579 6.90868 1.46303 6.85077 1.6847 6.80177C2.50047 6.61914 3.66204 6.49888 4.60638 6.95767C5.01426 7.16703 5.37337 7.46101 5.65268 7.82627C5.79455 8.08908 5.95859 8.33852 6.1448 8.5746C6.22904 8.7305 6.30441 8.8864 6.36648 9.02894C6.43298 9.18484 6.42411 9.35856 6.34431 9.51001C6.25564 9.68373 6.0916 9.804 5.90539 9.84854L5.87436 9.853H5.86992L5.86549 9.85745C5.36894 9.84854 4.86795 9.89309 4.38027 9.99553C3.91032 9.98663 3.44923 9.87972 3.02362 9.68373C1.81771 9.08685 1.24579 7.66146 1.03298 6.97549ZM3.74185 11.1047H3.73298C3.94579 11.7862 4.51327 13.2116 5.72362 13.804C6.15367 14.0044 6.61918 14.1113 7.08914 14.1158C7.57682 14.0178 8.07337 13.9688 8.56992 13.9777H8.57436L8.60539 13.9733C8.79603 13.9287 8.95564 13.804 9.04431 13.6303C9.12411 13.4833 9.13298 13.3051 9.06648 13.1537C9.00441 13.0111 8.92904 12.8552 8.8448 12.6993C8.65859 12.4632 8.49455 12.2138 8.35268 11.951C8.07337 11.5857 7.71426 11.2917 7.30638 11.0824C6.86746 10.8775 6.39308 10.7706 5.90983 10.7661C5.43987 10.7528 4.96992 10.7973 4.50884 10.8998C4.3824 10.9245 4.2643 10.9548 4.15896 10.9818L4.15887 10.9818L4.15881 10.9818L4.15876 10.9818L4.07879 11.0022C3.95465 11.0334 3.83938 11.069 3.74185 11.1002V11.1047ZM11.7443 17.7505C11.6822 17.8619 11.5936 17.9554 11.4872 18.0178C11.4207 18.0579 11.3497 18.0846 11.2744 18.1024C10.33 18.3519 9.33249 18.2895 8.42362 17.9287C7.21771 17.3363 6.65022 15.9109 6.43741 15.2249H6.44628C7.16451 14.9933 8.7783 14.6013 10.0108 15.2071C10.4231 15.4165 10.7867 15.7194 11.0704 16.0846C11.2123 16.3385 11.3675 16.5791 11.5448 16.8107C11.629 16.971 11.7088 17.1314 11.7709 17.2784C11.833 17.4298 11.8241 17.6036 11.7443 17.7505ZM10.539 14.3944C10.5342 14.3613 10.5295 14.3284 10.5295 14.294C10.5207 14.0713 10.534 13.8485 10.5606 13.6258C10.5483 13.6286 10.5361 13.6317 10.5237 13.6349C10.4957 13.6421 10.4671 13.6495 10.4364 13.6526C10.2857 13.657 10.1305 13.6436 9.98421 13.6036V13.608H9.97978C9.95761 13.7595 9.90884 13.902 9.84234 14.0401C9.82989 14.0626 9.81465 14.0823 9.79976 14.1015C9.78812 14.1166 9.77669 14.1314 9.76697 14.147C9.97978 14.2093 10.1926 14.2851 10.3921 14.3831C10.4165 14.3964 10.4409 14.4109 10.4652 14.4254C10.4896 14.4399 10.514 14.4543 10.5384 14.4677V14.4588L10.5473 14.4632C10.5455 14.4398 10.5422 14.417 10.539 14.3944L10.539 14.3944ZM13.3803 18.7929V18.7973L12.4492 18.3207L12.4625 18.3029H12.4581C12.4891 18.2628 12.5202 18.2183 12.5468 18.1737C12.6133 18.0356 12.662 17.8886 12.6842 17.7372H12.6931V17.7327C12.8394 17.7728 12.9946 17.7862 13.1497 17.7773C13.1827 17.7745 13.2139 17.7666 13.2445 17.7589L13.2445 17.7589C13.2633 17.7542 13.2819 17.7495 13.3005 17.7461V17.7505L13.3226 17.7461L13.3891 18.7929H13.3803ZM13.5798 16.5746C14.1827 15.804 14.5197 14.8552 14.5463 13.8753C14.4798 12.5301 13.4024 11.4387 12.8615 10.9666L12.8571 10.971C12.3606 11.5456 11.363 12.8775 11.4295 14.2539C11.4606 14.7216 11.5891 15.1715 11.8152 15.5813C11.9926 15.8129 12.1522 16.0534 12.2896 16.3073C12.4049 16.4499 12.5202 16.588 12.631 16.7038C12.7463 16.824 12.9103 16.8864 13.0744 16.873C13.1985 16.8641 13.3182 16.8151 13.4202 16.7394C13.4822 16.6949 13.5354 16.637 13.5798 16.5746ZM11.5936 11.1403C11.3098 11.5501 11.0704 11.9911 10.8798 12.4499L10.8753 12.4543L10.8576 12.4766C10.7423 12.6325 10.565 12.7305 10.3699 12.7439C10.2059 12.7572 10.0418 12.6949 9.92657 12.5746C9.82017 12.4632 9.70933 12.3341 9.5985 12.1915C9.45662 11.9287 9.29258 11.6793 9.10638 11.4432C8.88914 11.0379 8.76056 10.5924 8.72953 10.1336C8.71623 9.6481 8.8049 9.16703 8.99111 8.72159C9.07091 8.52115 9.15958 8.32961 9.26155 8.13807C9.90884 8.95322 10.8088 9.55901 11.8418 9.83518C11.8507 10.2851 11.7665 10.726 11.5936 11.1403ZM12.6798 9.17594C12.8172 9.1893 12.9591 9.19821 13.101 9.19821C15.3665 9.19821 17.2019 7.35411 17.2064 5.08685C17.2019 2.81068 15.3709 0.966582 13.1054 0.966582C10.9507 0.966582 9.18175 2.63696 9.01771 4.76168V4.7795C9.00884 4.8775 9.00441 4.97995 9.00441 5.08239C9.00441 5.45211 9.05317 5.81291 9.14628 6.15589C9.15071 6.16925 9.15404 6.18262 9.15736 6.19598C9.16069 6.20934 9.16401 6.22271 9.16845 6.23607C9.17288 6.2472 9.1762 6.25834 9.17953 6.26947C9.18285 6.28061 9.18618 6.29175 9.19061 6.30289C9.19768 6.33485 9.20757 6.36398 9.21803 6.3948C9.22069 6.40263 9.22339 6.41057 9.22608 6.4187C9.23052 6.42984 9.23384 6.43986 9.23717 6.44988C9.24049 6.4599 9.24382 6.46992 9.24825 6.48106C9.25322 6.49438 9.25881 6.50832 9.26456 6.52266C9.27419 6.54667 9.28426 6.57177 9.29258 6.59687C9.29702 6.60578 9.30034 6.61469 9.30367 6.6236C9.30699 6.63251 9.31032 6.64142 9.31475 6.65032C9.33249 6.69487 9.35022 6.73496 9.36795 6.77505C9.37017 6.78173 9.3735 6.78841 9.37682 6.79509C9.38015 6.80177 9.38347 6.80845 9.38569 6.81513C9.39456 6.83518 9.40342 6.85411 9.41229 6.87304C9.42116 6.89197 9.43002 6.9109 9.43889 6.93095C9.44111 6.9354 9.44332 6.94097 9.44554 6.94654C9.44776 6.95211 9.44997 6.95767 9.45219 6.96213C9.46327 6.9844 9.47547 7.00556 9.48766 7.02672C9.49985 7.04788 9.51204 7.06903 9.52313 7.0913C9.53199 7.10021 9.53643 7.10912 9.54086 7.11803C9.55416 7.1403 9.56746 7.16146 9.58076 7.18262C9.59406 7.20378 9.60736 7.22493 9.62066 7.24721L9.63396 7.27393C9.66056 7.31848 9.68717 7.35856 9.7182 7.40311C10.197 8.10689 10.8842 8.65032 11.6911 8.94876C12.0015 9.06458 12.334 9.1403 12.6798 9.17594Z" fill="#35B266"/>
<path d="M15.0827 3.08685C14.9409 2.94432 14.7103 2.94432 14.5684 3.08685L13.0965 4.5657L11.6246 3.09131C11.4827 2.94877 11.2522 2.94877 11.1103 3.09131C10.9684 3.23385 10.9684 3.46547 11.1103 3.60801L12.5822 5.0824L11.1103 6.55679C10.9684 6.69933 10.9684 6.93095 11.1103 7.07349C11.2522 7.21603 11.4827 7.21603 11.6246 7.07349L13.0965 5.59465L14.5684 7.07349C14.7103 7.21603 14.9409 7.21603 15.0827 7.07349C15.2246 6.93095 15.2246 6.69933 15.0827 6.55679L13.6152 5.07795L15.0872 3.5991C15.2246 3.45656 15.2246 3.22939 15.0827 3.08685Z" fill="#35B266"/>
</svg>
