<svg width="20" height="18" viewBox="0 0 20 18" fill="none" xmlns="http://www.w3.org/2000/svg">
<path d="M9.4183 2.10683C9.61532 2.10683 9.77807 1.94509 9.77807 1.74931C9.77807 1.55352 9.61532 1.39178 9.4183 1.39178C9.22129 1.39178 9.05853 1.55352 9.05853 1.74931C9.05853 1.94935 9.22129 2.10683 9.4183 2.10683Z" fill="#35B266"/>
<path fill-rule="evenodd" clip-rule="evenodd" d="M18.7776 12.4818C19.0222 12.7199 19.2669 12.9579 19.509 13.1985C20.16 13.8454 20.1643 14.4328 19.5175 15.0712C18.7038 15.8884 17.8814 16.7056 17.0591 17.5143C16.4381 18.1272 15.8556 18.1314 15.2474 17.5185C14.8458 17.1163 14.4556 16.7003 14.0651 16.284L14.0651 16.2839C13.9226 16.1321 13.7801 15.9801 13.637 15.8288L13.4871 15.9352C13.4871 16.0286 13.4883 16.1219 13.4894 16.2151V16.2151C13.4921 16.4322 13.4948 16.6487 13.4828 16.8631C13.4486 17.5015 13.016 17.9612 12.3735 17.9697C12.2122 17.9724 12.0508 17.9753 11.8894 17.9782H11.8894H11.8893H11.8893H11.8893H11.8892H11.8892H11.8892H11.8892C10.7564 17.9987 9.62201 18.0192 8.49745 17.9484C8.05737 17.9213 7.635 17.9329 7.20135 17.9449L7.07122 17.9484C5.27615 18.0002 3.48107 17.9877 1.68599 17.9751C1.41668 17.9732 1.14736 17.9714 0.878044 17.9697C0.342673 17.9654 0.0257326 17.6292 0.0171666 17.0972C0.0086007 16.5226 0.0086007 15.9437 0.0171666 15.3692C0.0257326 14.7946 0.351239 14.4796 0.942289 14.4668C1.17388 14.4641 1.40547 14.4649 1.65957 14.4658H1.6597H1.66006H1.66043H1.6608C1.79636 14.4663 1.93833 14.4668 2.09013 14.4668V13.3943C2.09441 12.2792 2.43276 11.9301 3.53777 11.9046C3.59372 11.9046 3.64785 11.8992 3.74432 11.8895L3.74441 11.8894C3.79561 11.8843 3.85873 11.8779 3.94037 11.8706L3.61374 11.5556L3.6137 11.5555L3.61351 11.5554C2.99731 10.9614 2.43102 10.4156 1.88026 9.85738C1.70466 9.68287 1.52906 9.48283 1.43483 9.26151C1.23353 8.78907 1.37915 8.37196 1.73892 8.01444C2.23769 7.52134 2.73492 7.02517 3.23153 6.52962L3.23165 6.52951C3.5623 6.19956 3.89267 5.86989 4.22305 5.54158C4.89547 4.87762 5.40515 4.87762 6.10755 5.51605C6.1374 5.54323 6.17013 5.56755 6.21245 5.59899L6.21245 5.59899L6.21247 5.599L6.21252 5.59904L6.21258 5.59908C6.24312 5.62177 6.27865 5.64817 6.3217 5.68204C6.32531 5.60849 6.33045 5.54325 6.33518 5.48315L6.33518 5.4831L6.33518 5.48307L6.33518 5.48304C6.34167 5.40059 6.3474 5.32779 6.3474 5.25642C6.3474 4.98189 6.34624 4.70737 6.34509 4.43284C6.34239 3.79228 6.33969 3.15173 6.35168 2.51117C6.36453 1.79612 6.9513 1.31092 7.61944 1.36199C7.62446 1.36199 7.62801 1.36345 7.63095 1.36466C7.63303 1.36552 7.6348 1.36625 7.63658 1.36625C7.80361 1.37902 7.94495 1.5067 7.97493 1.67269C8.00919 1.87274 7.87214 2.06852 7.67084 2.10257C7.65371 2.11108 7.63658 2.1196 7.61944 2.1196C7.21684 2.14939 7.1269 2.35369 7.13119 2.7027C7.13975 3.8391 7.14403 4.97551 7.13119 6.11192C7.1269 6.51625 7.28537 6.66097 7.68797 6.65671C8.71589 6.64394 9.74808 6.64394 10.7803 6.65245C10.5147 6.0651 10.3648 5.40964 10.3648 4.72439C10.3648 3.75823 10.6604 2.86018 11.1657 2.1196H11.1615C10.9773 2.0898 10.8445 1.93232 10.8445 1.74931C10.8445 1.54501 11.0158 1.37902 11.2214 1.37902H11.2257C11.4013 1.35348 11.5683 1.37476 11.7225 1.43435C12.5791 0.566081 13.7741 0.0255432 15.0975 0.0255432C17.7101 0.0297994 19.8259 2.13236 19.8302 4.72865C19.8302 7.32493 17.7101 9.43176 15.0975 9.43176H15.0804V10.798C15.0999 10.7998 15.1188 10.8045 15.1347 10.8084C15.1572 10.8141 15.1739 10.8182 15.1789 10.8108C15.9327 10.0446 16.6608 10.3128 17.2133 10.9087C17.7173 11.4503 18.2474 11.966 18.7775 12.4818L18.7775 12.4818L18.7776 12.4818ZM19.0593 4.72439C19.055 2.54947 17.2861 0.787404 15.0975 0.787404C12.9089 0.787404 11.1358 2.54947 11.14 4.71162C11.14 5.35431 11.2942 5.95869 11.5683 6.49497C11.5898 6.52902 11.6069 6.56307 11.624 6.59712C11.6283 6.60351 11.6315 6.60989 11.6347 6.61628C11.6379 6.62266 11.6412 6.62905 11.6454 6.63543C11.6507 6.64465 11.6556 6.65347 11.6604 6.662C11.6709 6.68104 11.6807 6.69867 11.6926 6.7163C11.6968 6.72907 11.7011 6.74183 11.7097 6.75035L11.7739 6.8525L11.7754 6.85528L11.7789 6.86147L11.7825 6.86738L11.7825 6.86739L11.7867 6.87443C11.7884 6.87726 11.7899 6.87994 11.7911 6.88229C11.8082 6.91208 11.8253 6.93762 11.8467 6.96741C11.8553 6.97167 11.8596 6.98018 11.8639 6.98869C11.8853 7.02272 11.9109 7.05674 11.9366 7.09077L11.9366 7.09077L11.9366 7.09078L11.9366 7.09079L11.9367 7.0908L11.9367 7.09081L11.9367 7.09082L11.9367 7.09083L11.9367 7.09083L11.9367 7.09084C11.9388 7.0951 11.942 7.09829 11.9452 7.10148C11.9485 7.10468 11.9517 7.10787 11.9538 7.11212L11.9538 7.11214C11.9752 7.14193 11.9966 7.17171 12.0223 7.2015L12.0352 7.21427L12.078 7.2632L12.1208 7.31217C12.1251 7.32068 12.1294 7.32493 12.1337 7.32919C12.1487 7.34408 12.1626 7.36004 12.1765 7.376L12.1765 7.37601C12.1904 7.39197 12.2044 7.40793 12.2194 7.42283C12.7633 7.99741 13.4786 8.41027 14.2838 8.57626C14.545 8.63159 14.8106 8.66138 15.0847 8.66138H15.0975C17.2861 8.66138 19.0593 6.89931 19.0593 4.72439ZM8.96858 7.46965V8.38047L8.10342 7.46965H8.96858ZM2.35995 8.49113C2.06871 8.77204 2.09441 8.99762 2.37708 9.27002C3.19513 10.0617 4.00033 10.8661 4.80125 11.679C5.06679 11.9514 5.28522 11.9557 5.55077 11.6875C6.3731 10.8576 7.204 10.0319 8.03918 9.21469C8.27902 8.9806 8.29615 8.78481 8.04774 8.54221C7.56316 8.07038 7.08417 7.593 6.60518 7.11561C6.24593 6.75757 5.88668 6.39952 5.52507 6.04382C5.46823 5.98733 5.40112 5.94104 5.32698 5.88991L5.32698 5.8899C5.28382 5.86013 5.23828 5.82872 5.191 5.7927C5.14556 5.82431 5.10119 5.85166 5.05884 5.87777L5.05878 5.8778L5.05877 5.87781L5.05876 5.87781C4.98139 5.9255 4.91076 5.96904 4.85264 6.02679C4.50647 6.36725 4.16179 6.70993 3.81673 7.05298L3.81667 7.05304C3.33352 7.53337 2.84965 8.01443 2.35995 8.49113ZM2.71544 17.178H0.839498V15.2883H2.71972L2.71544 17.178ZM6.99841 17.1908C7.28109 17.1908 7.39245 17.0121 7.39245 16.7567C7.39673 15.5439 7.39673 14.3354 7.39673 13.1184V13.1176C7.39245 12.8367 7.25539 12.6835 6.95558 12.6835H3.29792C3.02381 12.6835 2.88248 12.8154 2.87819 13.0878C2.87712 13.1851 2.87523 13.2822 2.87335 13.379C2.86773 13.6676 2.86216 13.9544 2.87819 14.2413C2.89532 14.3647 2.95957 14.4711 3.06236 14.5435C3.405 14.752 3.5292 15.0499 3.52064 15.4373C3.51155 15.8345 3.51317 16.2296 3.5149 16.6512L3.5149 16.6513C3.51562 16.8259 3.51636 17.0051 3.51636 17.1908C3.92048 17.1908 4.31828 17.1913 4.71172 17.1918C5.48582 17.1927 6.24306 17.1936 6.99841 17.1908ZM7.79076 12.0153C7.63453 12.0136 7.55723 11.9844 7.46746 11.9504C7.32342 11.8959 7.14728 11.8293 6.56155 11.845L8.94717 9.57221V11.828C8.43501 11.8178 8.2597 11.8898 8.11912 11.9475C8.02458 11.9863 7.94576 12.0187 7.79076 12.0153ZM8.73302 17.2036C9.87657 17.1866 11.0201 17.1866 12.1637 17.2036C12.5791 17.2078 12.7205 17.0291 12.7076 16.6418C12.6956 16.2516 12.6983 15.8593 12.701 15.4664V15.4664V15.4663C12.7022 15.2978 12.7033 15.1292 12.7033 14.9606C12.7033 14.7867 12.7022 14.6132 12.701 14.4399V14.4399V14.4398C12.6983 14.0364 12.6956 13.6345 12.7076 13.2325C12.7162 12.8367 12.562 12.675 12.1551 12.6792C11.0116 12.6963 9.86801 12.6963 8.72445 12.6792C8.31329 12.675 8.17623 12.858 8.18051 13.2411C8.18908 14.3775 8.18908 15.5139 8.18051 16.6503C8.17623 17.0418 8.32185 17.2078 8.73302 17.2036ZM10.2278 11.9089C9.88514 11.9131 9.75237 11.7556 9.75237 11.4237C9.76093 10.2617 9.76093 9.09552 9.75237 7.93357C9.74808 7.58031 9.88942 7.41857 10.2535 7.42708C10.579 7.4356 10.9045 7.4356 11.2257 7.43134C11.9324 8.42729 13.0203 9.13808 14.2795 9.35514C14.2795 10.0532 14.2795 10.7512 14.2838 11.4449C14.2838 11.7556 14.151 11.9046 13.8298 11.9046C13.5301 11.9046 13.2305 11.9043 12.9308 11.9041H12.9306H12.9304C12.0307 11.9033 11.1305 11.9025 10.2278 11.9089ZM16.4681 17.0078C17.299 16.1693 18.1384 15.3309 18.9865 14.5052C19.2648 14.237 19.2391 14.0199 18.9693 13.7561C18.1513 12.9644 17.3461 12.16 16.5452 11.347C16.2668 11.0619 16.0398 11.0534 15.7614 11.3428C15.1446 11.9812 14.515 12.6069 13.8726 13.2198C13.6028 13.4794 13.3886 13.739 13.4186 14.1647C13.4426 14.2348 13.4607 14.3102 13.4789 14.3857C13.5192 14.5529 13.5594 14.7201 13.6627 14.8286C14.123 15.3167 14.5997 15.7864 15.0762 16.2559C15.3269 16.5029 15.5775 16.7498 15.8256 16.9993C16.0483 17.2206 16.2368 17.2376 16.4681 17.0078Z" fill="#35B266"/>
<path d="M14.6007 4.72438L13.1787 6.13319C13.0417 6.26938 13.0417 6.49071 13.1787 6.62691C13.3158 6.7631 13.5385 6.7631 13.6755 6.62691L15.0975 5.21385L16.5194 6.62691C16.6565 6.7631 16.8792 6.7631 17.0163 6.62691C17.1533 6.49071 17.1533 6.26938 17.0163 6.13319L15.5943 4.72438L17.0163 3.31132C17.1533 3.17512 17.1533 2.9538 17.0163 2.8176C16.8792 2.6814 16.6565 2.6814 16.5194 2.8176L15.0975 4.23066L13.6755 2.82186C13.5385 2.68566 13.3158 2.68566 13.1787 2.82186C13.0417 2.95806 13.0417 3.17938 13.1787 3.31558L14.6007 4.72438Z" fill="#35B266"/>
</svg>
