<svg width="20" height="20" viewBox="0 0 20 20" fill="none" xmlns="http://www.w3.org/2000/svg">
<path d="M14.8917 18.1911C14.7388 18.344 14.7388 18.5903 14.8917 18.7431C15.0446 18.896 15.2908 18.896 15.4437 18.7431C15.5966 18.5903 15.5966 18.344 15.4437 18.1954C15.2908 18.0425 15.0446 18.0425 14.8917 18.1911Z" fill="#35B266"/>
<path d="M15.9915 19.2909C15.9915 19.2951 15.9915 19.2951 15.9915 19.2909C15.8386 19.4437 15.8386 19.69 15.9915 19.8429C16.1443 19.9915 16.3864 19.9915 16.5393 19.8429C16.6921 19.69 16.6921 19.4437 16.5393 19.2909C16.3906 19.1423 16.1443 19.1423 15.9915 19.2909Z" fill="#35B266"/>
<path d="M17.0913 16.5393C16.9384 16.3864 16.6921 16.3907 16.5435 16.5393C16.3906 16.6922 16.3906 16.9385 16.5435 17.0913C16.6963 17.2442 16.9426 17.2442 17.0955 17.0913C17.2484 16.9385 17.2441 16.6922 17.0913 16.5393C17.0913 16.5393 17.0913 16.5435 17.0913 16.5393Z" fill="#35B266"/>
<path d="M18.4671 17.9193C18.3142 17.7665 18.0679 17.7665 17.9151 17.9193C17.7622 18.0722 17.7622 18.3185 17.9151 18.4671C18.0679 18.62 18.3142 18.62 18.4671 18.4671C18.6199 18.3185 18.6199 18.0722 18.4671 17.9193Z" fill="#35B266"/>
<path d="M19.8471 19.2951C19.6942 19.1423 19.4479 19.1423 19.2951 19.2951C19.1422 19.448 19.1422 19.6943 19.2951 19.8471C19.4479 20 19.6942 19.9958 19.8471 19.8471C19.9957 19.69 19.9957 19.448 19.8471 19.2951Z" fill="#35B266"/>
<path fill-rule="evenodd" clip-rule="evenodd" d="M15.7367 10.5435L16.9427 10.9469C16.9979 10.9639 17.0531 10.9979 17.0998 11.0404C17.639 11.5796 17.8047 12.4119 17.5626 13.3801C17.3376 14.2803 16.7855 15.206 16 15.9915C14.6879 17.3036 12.3609 18.3779 11.0616 17.104C11.0148 17.0616 10.9766 17.0064 10.9554 16.9427L10.552 15.7367C9.93629 15.9193 9.28661 15.5669 9.10402 14.9512C9.04457 14.7559 9.04032 14.5478 9.08703 14.3482L0.832255 8.86201C0.377903 8.58176 0.101894 8.16987 0.0466928 7.68154C-0.118912 6.26753 1.52015 4.42464 2.97238 2.97241C4.42461 1.52018 6.2675 -0.118882 7.69 0.0467233C8.17833 0.101925 8.58597 0.373687 8.87047 0.832286L10.6114 3.45649C11.2399 1.60936 12.9894 0.276023 15.0531 0.276023C17.6433 0.280269 19.741 2.37793 19.7452 4.96817C19.7452 7.36732 17.949 9.34184 15.6263 9.62634C15.6815 9.71976 15.7282 9.82592 15.7537 9.94057C15.8004 10.1401 15.7962 10.3482 15.7367 10.5435ZM18.9809 4.96817C18.9766 2.79832 17.2229 1.04035 15.0531 1.04035C12.8832 1.04035 11.1252 2.79832 11.1252 4.96817C11.1252 5.92783 11.4692 6.80681 12.0424 7.49471C12.0806 7.54138 12.1231 7.58804 12.1655 7.63471L12.1655 7.63473L12.1655 7.63475L12.1655 7.63477L12.1655 7.63478L12.1656 7.6348L12.1656 7.63482L12.1656 7.63483L12.1698 7.63908C12.2123 7.68578 12.2548 7.72824 12.3015 7.77495L12.3015 7.77496C12.3949 7.86413 12.4926 7.9533 12.5945 8.03398L12.6114 8.0472C12.6828 8.10278 12.7578 8.1612 12.8365 8.21233C13.2314 8.47984 13.6773 8.68367 14.1571 8.79407C14.4458 8.86201 14.7431 8.89598 15.0531 8.89598C17.2229 8.89598 18.9809 7.13802 18.9809 4.96817ZM1.26113 8.21233L1.24839 8.20384C0.985122 8.04248 0.849241 7.84715 0.819517 7.58812C0.679389 6.36944 2.81952 4.22931 3.5244 3.52443C4.22928 2.81955 6.36941 0.67942 7.59234 0.819547C7.85136 0.849271 8.04669 0.985152 8.20805 1.24842C8.20805 1.25267 8.4331 1.58812 8.4331 1.58812L1.58809 8.42889L1.26113 8.21233ZM8.87047 2.25055L2.25051 8.8705L7.29935 12.2251L11.4989 8.02549C10.794 7.20596 10.3652 6.1359 10.3652 4.96817C10.3652 4.78558 10.3737 4.60723 10.3949 4.42889C10.3354 4.39917 10.2802 4.3567 10.2378 4.29725C10.2357 4.29513 10.2335 4.29195 10.2314 4.28876C10.2293 4.28558 10.2272 4.28239 10.225 4.28027L8.87047 2.25055ZM7.96177 12.6667L12.0509 8.57751C12.518 8.96817 13.0616 9.26965 13.6603 9.45224L13.69 9.49471L9.49892 13.6858L7.96177 12.6667ZM9.94054 14.8917C10.0934 15.0446 10.3397 15.0446 10.4926 14.8917L14.8959 10.4883C15.0488 10.3355 15.0488 10.0892 14.8959 9.93632C14.7431 9.78345 14.4968 9.78345 14.3439 9.93632L9.94054 14.3397C9.78767 14.4926 9.78767 14.7389 9.94054 14.8917ZM11.2102 15.2697L15.2739 11.2102L16.0976 11.4862L11.4862 16.0977L11.2102 15.2697ZM11.9193 16.7686C12.7771 17.1508 14.2675 16.6157 15.4437 15.4438C16.6157 14.2675 17.1465 12.7728 16.7643 11.9193L11.9193 16.7686Z" fill="#35B266"/>
<path d="M14.5605 4.96817L13.1507 6.37369C13.0149 6.50958 13.0149 6.73038 13.1507 6.86626C13.2866 7.00214 13.5074 7.00214 13.6433 6.86626L15.0531 5.4565L16.4628 6.86626C16.5987 7.00214 16.8195 7.00214 16.9554 6.86626C17.0913 6.73038 17.0913 6.50958 16.9554 6.37369L15.5456 4.96817L16.9554 3.55841C17.0913 3.42253 17.0913 3.20172 16.9554 3.06584C16.8195 2.92996 16.5987 2.92996 16.4628 3.06584L15.0531 4.47561L13.6433 3.07009C13.5074 2.9342 13.2866 2.9342 13.1507 3.07009C13.0149 3.20597 13.0149 3.42677 13.1507 3.56265L14.5605 4.96817Z" fill="#35B266"/>
</svg>
