<svg width="17" height="20" viewBox="0 0 17 20" fill="none" xmlns="http://www.w3.org/2000/svg">
<path d="M11.2346 12.9099C11.1416 12.8064 11.0132 12.7434 10.8759 12.7299H10.8449C10.5748 12.7344 10.3534 12.9504 10.3357 13.225C10.3047 13.8282 10.1275 14.4134 9.81311 14.9265C9.50756 15.4442 9.06916 15.8718 8.54662 16.1599C8.42705 16.2319 8.34291 16.349 8.30306 16.484C8.2632 16.6145 8.27649 16.7586 8.34291 16.8801C8.43591 17.0647 8.6219 17.1817 8.83003 17.1862C8.91859 17.1862 9.00273 17.1637 9.07801 17.1187C9.75112 16.7406 10.3091 16.1869 10.7076 15.5162V15.5117C11.1195 14.8455 11.3497 14.0803 11.3675 13.2925V13.288C11.3763 13.1485 11.3276 13.0134 11.2346 12.9099Z" fill="#35B266"/>
<path fill-rule="evenodd" clip-rule="evenodd" d="M16.956 4.97401C16.9516 2.22818 14.764 0.00450137 12.0627 0C10.411 0 8.95405 0.832753 8.06839 2.10214C8.01985 2.02738 7.9713 1.95311 7.92309 1.87935L7.92307 1.87932C7.82614 1.73102 7.73051 1.58473 7.63884 1.44044L7.63441 1.43144C7.56345 1.32067 7.4925 1.21285 7.42237 1.10629L7.42234 1.10625C7.36994 1.02662 7.31799 0.94769 7.26686 0.868764C7.22258 0.801244 7.16501 0.742726 7.09859 0.697712C7.01888 0.643696 6.92145 0.612186 6.82403 0.612186C6.63804 0.612186 6.46977 0.711216 6.36791 0.864263C6.04022 1.40443 5.65938 1.9716 5.15456 2.70982L5.0888 2.80847C3.15573 5.70812 0 10.4418 0 13.081C0 14.9175 0.712958 16.6551 2.00603 17.9695C3.30795 19.2659 5.01728 19.9816 6.81517 19.9816C10.5704 19.9636 13.6082 16.8711 13.6303 13.054C13.6303 12.2437 13.3425 11.2039 12.7535 9.89851C15.1271 9.56091 16.956 7.48127 16.956 4.97401ZM10.8981 17.2042C9.81757 18.3026 8.34737 18.9193 6.81517 18.9102C5.28741 18.9102 3.82606 18.2981 2.7367 17.2087C1.65619 16.1104 1.04951 14.6159 1.05837 13.0585C1.05837 10.7718 4.03862 6.28841 6.01365 3.31751L6.03136 3.2905C6.13321 3.14196 6.23064 2.99341 6.32363 2.84937L6.32655 2.84487C6.45386 2.64851 6.57256 2.46545 6.69561 2.2957L6.8196 2.12014L6.9436 2.2957C7.03093 2.41618 7.11387 2.54336 7.20016 2.67567L7.20017 2.67569C7.23638 2.73122 7.27318 2.78765 7.31115 2.84486C7.37757 2.9439 7.44399 3.04743 7.51042 3.15096C7.29343 3.71363 7.17387 4.33032 7.17387 4.97401C7.17387 7.5668 9.12233 9.69145 11.6155 9.92552C12.1956 11.1319 12.5764 12.2302 12.5764 13.054C12.572 14.6069 11.9697 16.0969 10.8981 17.2042ZM12.3085 9.12878C12.3295 9.12765 12.3506 9.12652 12.3727 9.12427C14.4894 8.96222 16.1589 7.16618 16.1589 4.97401C16.1545 2.67381 14.3256 0.810246 12.0627 0.810246C9.79986 0.810246 7.96654 2.67381 7.96654 4.97401C7.96654 6.95461 9.33046 8.61562 11.1549 9.03425C11.4428 9.10177 11.7483 9.13778 12.0583 9.13778C12.0827 9.13778 12.1059 9.13665 12.1292 9.13553C12.1524 9.1344 12.1756 9.13328 12.2 9.13328H12.2443C12.2664 9.13103 12.2875 9.1299 12.3085 9.12878Z" fill="#35B266"/>
<path d="M14.0422 2.96191C13.9005 2.81787 13.6702 2.81787 13.5285 2.96191L12.0583 4.45637L10.5881 2.96642C10.4464 2.82237 10.2161 2.82237 10.0744 2.96642C9.93271 3.11046 9.93271 3.34453 10.0744 3.48857L11.5446 4.97853L10.0744 6.46848C9.93271 6.61252 9.93271 6.8466 10.0744 6.99064C10.2161 7.13468 10.4464 7.13468 10.5881 6.99064L12.0583 5.49619L13.5285 6.99064C13.6702 7.13468 13.9005 7.13468 14.0422 6.99064C14.1839 6.8466 14.1839 6.61252 14.0422 6.46848L12.5764 4.97403L14.0466 3.47957C14.1839 3.33553 14.1839 3.10596 14.0422 2.96191Z" fill="#35B266"/>
</svg>
