<svg width="38" height="40" viewBox="0 0 38 40" fill="none" xmlns="http://www.w3.org/2000/svg">
<path fill-rule="evenodd" clip-rule="evenodd" d="M6.69266 14.5194C5.90497 14.8115 5.71667 15.2878 5.71905 16.0621C5.74063 23.048 5.73519 30.0339 5.72533 37.0197C5.72448 37.6074 5.91499 38.4454 4.98913 38.4501C4.05001 38.4547 4.25667 37.6128 4.25616 37.0275C4.24885 30.0417 4.24511 23.0557 4.27043 16.07C4.27315 15.2921 4.08179 14.8152 3.29682 14.5239C2.33578 14.1673 1.79195 13.3889 1.56711 12.2484H8.41795C8.19328 13.3449 7.67835 14.154 6.69266 14.5194ZM9.97566 11.7849C10.0163 8.87146 9.99283 5.95739 9.99691 3.04348C9.99759 2.51725 9.86809 2.01411 9.25782 2.00188C8.57294 1.98813 8.49425 2.52863 8.49561 3.08288C8.5019 5.31789 8.49816 7.55273 8.49799 9.78757V10.6972H7.14863V9.7334C7.14829 7.4702 7.14676 5.207 7.14846 2.94398C7.1488 2.42997 6.96967 2.00647 6.40868 2.00001C5.85143 1.99356 5.64954 2.40891 5.64121 2.92309C5.63781 3.12108 5.63849 3.31925 5.63849 3.51725C5.63832 5.61064 5.64002 7.7042 5.63662 9.79759C5.63611 10.0968 5.61096 10.3958 5.59448 10.7543C5.12424 10.7331 4.74679 10.7161 4.31003 10.6964V9.67855C4.30935 7.50026 4.30561 5.32179 4.30986 3.14367C4.31071 2.60911 4.29898 2.02396 3.61122 2.0046C2.85615 1.9832 2.84561 2.60351 2.84578 3.16354C2.8468 5.37019 2.84833 7.57684 2.84408 9.78333C2.84374 10.0825 2.81264 10.3814 2.79463 10.7033H1.51749C1.51749 10.2666 1.51766 9.92868 1.51749 9.59093C1.51715 7.38428 1.51749 5.17763 1.51579 2.97114C1.51528 2.42674 1.32443 1.97488 0.710931 2.00324C0.149772 2.02939 0.00514846 2.47514 0.00616813 2.98082C0.0116064 5.95127 -0.0218728 8.92223 0.0270714 11.8918C0.0535828 13.496 0.799133 14.7826 2.18028 15.6196C2.64151 15.8993 2.76421 16.1971 2.76285 16.7013C2.7467 23.5191 2.74925 30.3369 2.75316 37.1547C2.75333 37.5201 2.76625 37.894 2.84187 38.2494C3.06637 39.3043 3.99784 40.028 5.04334 39.9991C6.14051 39.9691 7.02609 39.1766 7.1748 38.063C7.22306 37.7004 7.22102 37.3296 7.22119 36.9624C7.22374 30.2296 7.22765 23.4967 7.21439 16.7638C7.2132 16.2381 7.32707 15.9049 7.82212 15.603C9.2296 14.7448 9.95289 13.4213 9.97566 11.7849Z" fill="#35B266"/>
<path fill-rule="evenodd" clip-rule="evenodd" d="M36.5642 5.25311C36.5623 15.8487 36.5607 26.4445 36.5589 37.0402C36.5589 37.1818 36.5555 37.3235 36.5592 37.4651C36.5715 37.9565 36.493 38.4261 35.9263 38.456C35.312 38.4884 35.1817 38.0043 35.1804 37.4787C35.1744 35.0421 35.1762 32.6058 35.1754 30.1694C35.1751 29.1493 35.1436 28.1279 35.1862 27.1101C35.215 26.4252 35.0064 25.91 34.518 25.4726C34.171 25.1619 33.7848 24.8484 33.5619 24.4464C33.2364 23.859 32.8368 23.1951 32.8248 22.5565C32.7609 19.1302 32.7378 15.6993 32.8361 12.2744C32.9266 9.12845 34.2219 6.51307 36.5642 4.1747V5.25311ZM37.9987 20.4337C37.9989 14.6825 38.007 8.93142 37.9811 3.18051C37.9795 2.78066 37.8231 2.17816 37.5623 2.04034C37.304 1.90388 36.7517 2.138 36.4498 2.37877C33.2574 4.92523 31.5155 8.31819 31.3933 12.5423C31.3072 15.5144 31.4536 18.4945 31.3406 21.4645C31.2657 23.4357 31.763 25.0336 33.2391 26.2535C33.6888 26.625 33.7892 27.083 33.7853 27.6605C33.7642 30.9466 33.7792 34.2331 33.7732 37.5194C33.7716 38.3599 33.9703 39.0953 34.6706 39.5828C35.3779 40.0753 36.1218 40.1492 36.8797 39.7109C37.6992 39.2368 38.0002 38.4647 37.9999 37.5171C37.9974 31.8226 37.9986 26.1281 37.9987 20.4337Z" fill="#35B266"/>
<path fill-rule="evenodd" clip-rule="evenodd" d="M19.0667 11.5125C23.9608 11.5466 27.8808 15.636 27.8678 20.6937C27.8546 25.782 23.8677 29.8549 18.9332 29.8207C14.039 29.7868 10.1187 25.6978 10.1316 20.6402C10.1446 15.5533 14.1337 11.4782 19.0667 11.5125ZM18.9532 31.3332C24.6682 31.357 29.2998 26.6286 29.3331 20.7362C29.3664 14.836 24.7949 10.0454 19.0878 10.0003C13.3712 9.95493 8.72074 14.6649 8.6671 20.5541C8.61312 26.4912 13.2109 31.3093 18.9532 31.3332Z" fill="#35B266"/>
<path fill-rule="evenodd" clip-rule="evenodd" d="M29.705 28.8532C29.252 28.4783 28.8595 28.7227 28.5308 29.1084C28.3829 29.2823 28.2347 29.4559 28.0804 29.6237C24.2974 33.7398 18.5901 34.951 13.4851 32.7076C12.8882 32.4455 12.3469 32.038 11.735 31.8346C11.4485 31.7393 10.953 31.7238 10.7489 32.0879C10.5439 32.4534 10.7641 32.8763 10.9504 33.0358C11.0978 33.1617 11.3124 33.2936 11.5086 33.4089C13.6959 34.6941 16.0725 35.277 18.7803 35.3333C19.1581 35.3062 19.7277 35.289 20.2915 35.2208C24.0782 34.7638 27.1915 33.0499 29.6487 30.1204C29.9936 29.7089 30.2017 29.2644 29.705 28.8532Z" fill="#35B266"/>
<path fill-rule="evenodd" clip-rule="evenodd" d="M13.4125 9.34512C14.6657 8.75422 15.9394 8.36764 17.2337 8.18759C18.0008 8.09438 18.7799 8.07044 19.5683 8.10475C20.0482 8.12566 20.5163 8.17211 20.9752 8.23867C21.4333 8.31257 21.8934 8.40786 22.356 8.53124C23.1161 8.73395 23.8481 8.98902 24.546 9.30649C25.7158 9.8637 26.7983 10.6107 27.794 11.5457C28.1655 11.8948 28.5931 12.2362 29.0901 11.7807C29.5041 11.4014 29.3298 11.0292 29.0118 10.7031C28.9329 10.596 28.8251 10.4975 28.6982 10.4123C28.6932 10.4088 28.688 10.4053 28.6826 10.4019C27.4527 9.30154 26.121 8.4425 24.6942 7.82846C24.5601 7.76063 24.4159 7.7038 24.2624 7.6489C23.2872 7.26774 22.268 7.0007 21.2092 6.84221C20.1529 6.67732 19.0985 6.62705 18.0483 6.69791C17.8843 6.70446 17.7288 6.71531 17.5789 6.73973C16.0218 6.89727 14.4748 7.31562 12.9447 7.99366C12.9387 7.99542 12.9326 7.99717 12.9266 7.99893C12.7781 8.04219 12.6433 8.10348 12.5332 8.18153C12.1241 8.39653 11.836 8.69788 12.1041 9.18167C12.4264 9.76235 12.9447 9.5657 13.4125 9.34512Z" fill="#35B266"/>
<path fill-rule="evenodd" clip-rule="evenodd" d="M12.6998 21.3299C13.3454 21.3739 13.5278 20.9911 13.5676 20.486C13.7265 18.4636 14.7908 17.0037 16.7374 16.0868C17.2041 15.8669 17.5025 15.5377 17.2287 15.0497C16.9543 14.5601 16.4826 14.6049 16.0257 14.8239C13.5847 15.9927 12.2623 17.8531 12 20.6676C12 20.7971 12 21.2822 12.6998 21.3299Z" fill="#35B266"/>
<path fill-rule="evenodd" clip-rule="evenodd" d="M9.33329 29.3333C8.96518 29.3333 8.66663 29.6319 8.66663 30C8.66663 30.3683 8.96518 30.6667 9.33329 30.6667C9.70141 30.6667 9.99996 30.3683 9.99996 30C9.99996 29.6319 9.70141 29.3333 9.33329 29.3333Z" fill="#35B266"/>
<path fill-rule="evenodd" clip-rule="evenodd" d="M18.6667 15.3333C19.0349 15.3333 19.3333 15.0348 19.3333 14.6667C19.3333 14.2984 19.0349 14 18.6667 14C18.2986 14 18 14.2984 18 14.6667C18 15.0348 18.2986 15.3333 18.6667 15.3333Z" fill="#35B266"/>
<path fill-rule="evenodd" clip-rule="evenodd" d="M20.5849 2.08849C20.6647 2.06173 20.7284 1.99823 20.7551 1.91828L20.9998 1.18343L21.2448 1.91828C21.2716 1.99823 21.3351 2.0619 21.4149 2.08849L22.1499 2.33333L21.4149 2.57834C21.3351 2.60493 21.2716 2.6686 21.2448 2.74839L20.9998 3.48324L20.7551 2.74839C20.7284 2.6686 20.6647 2.60493 20.5849 2.57834L19.8499 2.33333L20.5849 2.08849ZM18.8945 2.64958L20.2364 3.09687L20.6836 4.43875C20.7292 4.57495 20.8565 4.66667 20.9998 4.66667C21.1434 4.66667 21.2708 4.57495 21.3162 4.43875L21.7635 3.09687L23.1054 2.64958C23.2414 2.60413 23.3333 2.47679 23.3333 2.33333C23.3333 2.18988 23.2414 2.06254 23.1054 2.01709L21.7635 1.56979L21.3162 0.228079C21.2708 0.091715 21.1434 0 20.9998 0C20.8565 0 20.7292 0.091715 20.6836 0.228079L20.2364 1.56979L18.8945 2.01709C18.7583 2.06254 18.6666 2.18988 18.6666 2.33333C18.6666 2.47679 18.7583 2.60413 18.8945 2.64958Z" fill="#35B266"/>
<path fill-rule="evenodd" clip-rule="evenodd" d="M27.6539 3.91939C27.7785 3.87792 27.8777 3.77854 27.9192 3.65396L28.3333 2.41151L28.7474 3.65396C28.7889 3.7787 28.8881 3.87792 29.0127 3.91939L30.2549 4.33332L29.0127 4.74742C28.8881 4.78889 28.789 4.8881 28.7474 5.01285L28.3333 6.25514L27.9192 5.01285C27.8776 4.8881 27.7785 4.78889 27.6539 4.74742L26.4113 4.33332L27.6539 3.91939ZM24.9534 4.73115L27.1899 5.47672L27.9353 7.71325C27.9927 7.88484 28.1524 7.99999 28.3333 7.99999C28.514 7.99999 28.6739 7.88484 28.7311 7.71325L29.4767 5.47672L31.7131 4.73115C31.8846 4.6739 32 4.51402 32 4.33332C32 4.15279 31.8846 3.99291 31.7131 3.93566L29.4767 3.19009L28.7311 0.953562C28.6739 0.781972 28.514 0.666656 28.3333 0.666656C28.1524 0.666656 27.9927 0.781972 27.9353 0.953562L27.1899 3.19009L24.9534 3.93566C24.7819 3.99291 24.6666 4.15262 24.6666 4.33332C24.6666 4.51418 24.7819 4.6739 24.9534 4.73115Z" fill="#35B266"/>
</svg>
