<svg width="33" height="25" viewBox="0 0 33 25" fill="none" xmlns="http://www.w3.org/2000/svg">
<path d="M30.6345 20.0963H0.519208C0.232618 20.0963 0 20.3283 0 20.6155C0 22.6192 1.6304 24.25 3.63458 24.25H27.5191C29.5228 24.25 31.1537 22.6192 31.1537 20.6155C31.1537 20.3284 30.9216 20.0963 30.6345 20.0963ZM27.5191 23.2116H3.63458C2.38064 23.2116 1.33182 22.318 1.09087 21.1347H30.0628C29.8219 22.318 28.7731 23.2116 27.5191 23.2116Z" fill="#606060"/>
<path d="M15.5764 6.5965C8.13271 6.5965 2.07642 12.6528 2.07642 20.0965V20.6157C2.07642 20.9028 2.30903 21.1349 2.59562 21.1349H28.5571C28.8442 21.1349 29.0763 20.9028 29.0763 20.6157V20.0965C29.0764 12.6527 23.0205 6.5965 15.5764 6.5965ZM3.11489 20.0964C3.11489 13.2254 8.70541 7.63491 15.5764 7.63491C22.4474 7.63491 28.0379 13.2254 28.0379 20.0964H3.11489Z" fill="#606060"/>
<path d="M7.036 12.5188C6.67305 12.9269 6.33663 13.3636 6.03598 13.8174L6.90153 14.3911C7.17571 13.9778 7.48201 13.5795 7.81223 13.2083L7.036 12.5188Z" fill="#606060"/>
<path d="M15.5764 8.67322C12.6604 8.6748 9.88406 9.77656 7.7594 11.774L8.47076 12.5306C10.4023 10.7143 12.9262 9.71322 15.5769 9.7117L15.5764 8.67322Z" fill="#606060"/>
<path d="M17.1337 4H14.0183V5.03848H17.1337V4Z" fill="#606060"/>
<path d="M16.0955 4.51935H15.0571V7.11551H16.0955V4.51935Z" fill="#606060"/>
<path d="M21.5 2.5H23L27.5 10L26 15.5H24L23.5 13.5L22 13L20.5 14L19 12.5L20 11L19 9.5L17 9L17.5 7L19 6.5L19.5 5L19 3.5L20.5 2L21.5 2.5Z" fill="white"/>
<path d="M32.181 6.32045L31.058 6.12994C30.941 5.75225 30.7906 5.38793 30.6068 5.04032L31.2686 4.11448C31.5493 3.72008 31.5059 3.18195 31.1616 2.84103L30.1656 1.845C29.9784 1.65782 29.7311 1.55421 29.467 1.55421C29.2598 1.55421 29.0626 1.61771 28.8955 1.73804L27.9663 2.39983C27.6053 2.20932 27.2276 2.05222 26.8366 1.93524L26.6494 0.825569C26.5692 0.347608 26.1581 0 25.6734 0H24.2663C23.7817 0 23.3705 0.347608 23.2903 0.825569L23.0965 1.96198C22.7221 2.07896 22.3578 2.23271 22.0102 2.41989L21.0911 1.7581C20.9239 1.63777 20.7234 1.57426 20.5162 1.57426C20.2521 1.57426 20.0014 1.67788 19.8176 1.86505L18.8182 2.86108C18.4773 3.20201 18.4305 3.74013 18.7113 4.13453L19.3798 5.07374C19.1959 5.42469 19.0489 5.78901 18.9352 6.1667L17.8256 6.35388C17.3476 6.43409 17 6.84521 17 7.32985V8.737C17 9.22164 17.3476 9.63276 17.8256 9.71297L18.962 9.90683C19.079 10.2812 19.2327 10.6455 19.4199 10.9931L18.7614 11.9089C18.4807 12.3033 18.5241 12.8414 18.8684 13.1824L19.8644 14.1784C20.0516 14.3656 20.2989 14.4692 20.563 14.4692C20.7702 14.4692 20.9674 14.4057 21.1345 14.2854L22.0737 13.6169C22.4113 13.794 22.7656 13.9377 23.1299 14.0514L23.3171 15.1744C23.3973 15.6524 23.8084 16 24.293 16H25.7035C26.1882 16 26.5993 15.6524 26.6795 15.1744L26.87 14.0514C27.2477 13.9344 27.612 13.784 27.9596 13.6002L28.8855 14.262C29.0526 14.3823 29.2531 14.4458 29.4603 14.4458C29.7244 14.4458 29.9717 14.3422 30.1589 14.155L31.1549 13.159C31.4958 12.818 31.5426 12.2799 31.2619 11.8855L30.6001 10.9563C30.7839 10.6054 30.9377 10.2411 31.0513 9.86672L32.1743 9.67955C32.6523 9.59933 32.9999 9.18822 32.9999 8.70357V7.29643C33.0066 6.81178 32.659 6.40067 32.181 6.32045ZM32.1042 8.70357C32.1042 8.74702 32.0741 8.78379 32.0306 8.79047L30.6268 9.02444C30.4497 9.05452 30.3093 9.18488 30.2658 9.35534C30.1388 9.84667 29.945 10.3179 29.6843 10.7558C29.594 10.9095 29.6007 11.1001 29.7043 11.2471L30.5299 12.4103C30.5533 12.4437 30.55 12.4938 30.5199 12.5239L29.5238 13.52C29.5004 13.5433 29.477 13.5467 29.4603 13.5467C29.4403 13.5467 29.4236 13.54 29.4102 13.53L28.2504 12.7044C28.1067 12.6008 27.9128 12.5941 27.7591 12.6844C27.3212 12.9451 26.85 13.1389 26.3586 13.2659C26.1848 13.3094 26.0545 13.4531 26.0277 13.6269L25.7904 15.0307C25.7837 15.0742 25.747 15.1042 25.7035 15.1042H24.2964C24.2529 15.1042 24.2162 15.0742 24.2095 15.0307L23.9755 13.6269C23.9454 13.4498 23.8151 13.3094 23.6446 13.2659C23.1667 13.1423 22.7054 12.9517 22.2743 12.7044C22.2041 12.6643 22.1238 12.6442 22.047 12.6442C21.9567 12.6442 21.8631 12.671 21.7863 12.7278L20.6164 13.5601C20.5997 13.5701 20.583 13.5768 20.5663 13.5768C20.5529 13.5768 20.5262 13.5734 20.5028 13.55L19.5068 12.554C19.4767 12.5239 19.4734 12.4771 19.4967 12.4404L20.319 11.2872C20.4226 11.1402 20.4293 10.9463 20.339 10.7926C20.0783 10.3581 19.8778 9.88678 19.7508 9.39545C19.704 9.22499 19.5636 9.09463 19.3898 9.06455L17.976 8.8239C17.9325 8.81721 17.9024 8.78045 17.9024 8.737V7.32985C17.9024 7.2864 17.9325 7.24963 17.976 7.24295L19.3697 7.00898C19.5469 6.9789 19.6906 6.84855 19.7341 6.67474C19.8577 6.18341 20.0482 5.7088 20.3056 5.27094C20.3958 5.11719 20.3858 4.92668 20.2822 4.78295L19.45 3.61312C19.4266 3.5797 19.4299 3.52956 19.46 3.49948L20.456 2.50345C20.4794 2.48005 20.5028 2.47671 20.5195 2.47671C20.5396 2.47671 20.5563 2.48339 20.5696 2.49342L21.7228 3.31565C21.8698 3.41926 22.0637 3.42595 22.2174 3.3357C22.6519 3.075 23.1232 2.87445 23.6145 2.74744C23.785 2.70065 23.9154 2.56027 23.9454 2.38646L24.1861 0.972634C24.1928 0.929183 24.2295 0.899102 24.273 0.899102H25.6801C25.7236 0.899102 25.7603 0.929183 25.767 0.972634L26.001 2.36641C26.0311 2.54356 26.1614 2.68728 26.3352 2.73073C26.8399 2.85774 27.3212 3.05494 27.7691 3.31899C27.9229 3.40923 28.1134 3.40255 28.2604 3.29893L29.4135 2.47002C29.4303 2.46 29.447 2.45331 29.4637 2.45331C29.4771 2.45331 29.5038 2.45665 29.5272 2.48005L30.5232 3.47608C30.5533 3.50616 30.5566 3.55296 30.5332 3.58972L29.7077 4.74953C29.6041 4.89325 29.5974 5.08711 29.6876 5.24086C29.9483 5.67871 30.1422 6.14999 30.2692 6.64132C30.3126 6.81512 30.4564 6.94548 30.6302 6.97222L32.034 7.20953C32.0774 7.21621 32.1075 7.25298 32.1075 7.29643V8.70357H32.1042Z" fill="#606060"/>
<path d="M25.0016 4.54567C23.0965 4.54567 21.549 6.0932 21.549 7.99836C21.549 9.90352 23.0965 11.451 25.0016 11.451C26.9068 11.451 28.4543 9.90352 28.4543 7.99836C28.4543 6.0932 26.9068 4.54567 25.0016 4.54567ZM25.0016 10.5486C23.5945 10.5486 22.4514 9.4055 22.4514 7.99836C22.4514 6.59121 23.5945 5.44812 25.0016 5.44812C26.4087 5.44812 27.5518 6.59121 27.5518 7.99836C27.5518 9.4055 26.4087 10.5486 25.0016 10.5486Z" fill="#606060"/>
</svg>
