<svg width="21" height="19" viewBox="0 0 13 13" fill="none" xmlns="http://www.w3.org/2000/svg">
<path d="M12.0515 1.45284C11.4103 0.707752 10.5208 0.297424 9.54688 0.297424C8.1771 0.297424 7.30989 1.13524 6.8236 1.8381C6.69744 2.02049 6.59011 2.20337 6.5 2.37546C6.40989 2.20337 6.30259 2.02049 6.1764 1.8381C5.69011 1.13524 4.8229 0.297424 3.45312 0.297424C2.47919 0.297424 1.58968 0.707778 0.948467 1.45287C0.336857 2.16364 0 3.11556 0 4.13326C0 5.24107 0.422322 6.27144 1.32907 7.37584C2.13946 8.36292 3.30533 9.38037 4.65537 10.5585C5.15844 10.9976 5.67866 11.4516 6.23251 11.9479L6.24914 11.9628C6.32095 12.0272 6.41047 12.0593 6.5 12.0593C6.58953 12.0593 6.67905 12.0271 6.75086 11.9628L6.76749 11.9479C7.32134 11.4516 7.84156 10.9976 8.3447 10.5585C9.69467 9.38039 10.8605 8.36294 11.6709 7.37584C12.5777 6.27142 13 5.24107 13 4.13326C13 3.11556 12.6631 2.16364 12.0515 1.45284Z" fill="#FF4747"/>
</svg>
