<svg width="55" height="24" viewBox="0 0 55 24" fill="none" xmlns="http://www.w3.org/2000/svg">
<rect x="1" y="1" width="53" height="22" rx="11" stroke="#E8E8E8" stroke-width="2"/>
<path d="M28.8359 16L27.9805 13.6211H24.7051L23.8672 16H22.3906L25.5957 7.39844H27.1191L30.3242 16H28.8359ZM27.6113 12.4141L26.8086 10.082C26.75 9.92578 26.668 9.67969 26.5625 9.34375C26.4609 9.00781 26.3906 8.76172 26.3516 8.60547C26.2461 9.08594 26.0918 9.61133 25.8887 10.1816L25.1152 12.4141H27.6113ZM35.8789 16L35.6855 15.1504H35.6152C35.4238 15.4512 35.1504 15.6875 34.7949 15.8594C34.4434 16.0312 34.041 16.1172 33.5879 16.1172C32.8027 16.1172 32.2168 15.9219 31.8301 15.5312C31.4434 15.1406 31.25 14.5488 31.25 13.7559V9.51953H32.6387V13.5156C32.6387 14.0117 32.7402 14.3848 32.9434 14.6348C33.1465 14.8809 33.4648 15.0039 33.8984 15.0039C34.4766 15.0039 34.9004 14.832 35.1699 14.4883C35.4434 14.1406 35.5801 13.5605 35.5801 12.748V9.51953H36.9629V16H35.8789ZM41.3398 15.0039C41.6758 15.0039 42.0117 14.9512 42.3477 14.8457V15.8828C42.1953 15.9492 41.998 16.0039 41.7559 16.0469C41.5176 16.0938 41.2695 16.1172 41.0117 16.1172C39.707 16.1172 39.0547 15.4297 39.0547 14.0547V10.5625H38.1699V9.95312L39.1191 9.44922L39.5879 8.07812H40.4375V9.51953H42.2832V10.5625H40.4375V14.0312C40.4375 14.3633 40.5195 14.6094 40.6836 14.7695C40.8516 14.9258 41.0703 15.0039 41.3398 15.0039ZM49.3965 12.748C49.3965 13.8066 49.125 14.6328 48.582 15.2266C48.0391 15.8203 47.2832 16.1172 46.3145 16.1172C45.709 16.1172 45.1738 15.9805 44.709 15.707C44.2441 15.4336 43.8867 15.041 43.6367 14.5293C43.3867 14.0176 43.2617 13.4238 43.2617 12.748C43.2617 11.6973 43.5312 10.877 44.0703 10.2871C44.6094 9.69727 45.3691 9.40234 46.3496 9.40234C47.2871 9.40234 48.0293 9.70508 48.5762 10.3105C49.123 10.9121 49.3965 11.7246 49.3965 12.748ZM44.6797 12.748C44.6797 14.2441 45.2324 14.9922 46.3379 14.9922C47.4316 14.9922 47.9785 14.2441 47.9785 12.748C47.9785 11.2676 47.4277 10.5273 46.3262 10.5273C45.748 10.5273 45.3281 10.7188 45.0664 11.1016C44.8086 11.4844 44.6797 12.0332 44.6797 12.748Z" fill="#606060"/>
<circle cx="12" cy="12" r="8" fill="#E8E8E8"/>
</svg>
